<svg viewBox="0 0 329.98699951171875 199.9865264892578" xmlns="http://www.w3.org/2000/svg"><g><g><g><g><g><line x1="30" y1="177.987" x2="25" y2="177.987" style="visibility: inherit;" fill="rgb(0, 0, 0)" stroke="rgb(204, 204, 204)" stroke-width="1px"></line><line x1="30" y1="152.56028571428573" x2="25" y2="152.56028571428573" style="visibility: inherit;" fill="rgb(0, 0, 0)" stroke="rgb(204, 204, 204)" stroke-width="1px"></line><line x1="30" y1="127.13357142857143" x2="25" y2="127.13357142857143" style="visibility: inherit;" fill="rgb(0, 0, 0)" stroke="rgb(204, 204, 204)" stroke-width="1px"></line><line x1="30" y1="101.70685714285713" x2="25" y2="101.70685714285713" style="visibility: inherit;" fill="rgb(0, 0, 0)" stroke="rgb(204, 204, 204)" stroke-width="1px"></line><line x1="30" y1="76.28014285714286" x2="25" y2="76.28014285714286" style="visibility: inherit;" fill="rgb(0, 0, 0)" stroke="rgb(204, 204, 204)" stroke-width="1px"></line><line x1="30" y1="50.853428571428566" x2="25" y2="50.853428571428566" style="visibility: inherit;" fill="rgb(0, 0, 0)" stroke="rgb(204, 204, 204)" stroke-width="1px"></line><line x1="30" y1="25.426714285714294" x2="25" y2="25.426714285714294" style="visibility: inherit;" fill="rgb(0, 0, 0)" stroke="rgb(204, 204, 204)" stroke-width="1px"></line><line x1="30" y1="0" x2="25" y2="0" style="visibility: inherit;" fill="rgb(0, 0, 0)" stroke="rgb(204, 204, 204)" stroke-width="1px"></line></g><g transform="translate(20, 0)"><text x="0" y="177.987" dx="0em" dy="0.3em" style="text-anchor: end; visibility: hidden; font-family: Roboto, sans-serif; font-size: 12px; font-weight: 200;" fill="rgb(50, 49, 63)" stroke="none" stroke-width="1px">-5</text><text x="0" y="152.56028571428573" dx="0em" dy="0.3em" style="text-anchor: end; visibility: inherit; font-family: Roboto, sans-serif; font-size: 12px; font-weight: 200;" fill="rgb(50, 49, 63)" stroke="none" stroke-width="1px">0</text><text x="0" y="127.13357142857143" dx="0em" dy="0.3em" style="text-anchor: end; visibility: inherit; font-family: Roboto, sans-serif; font-size: 12px; font-weight: 200;" fill="rgb(50, 49, 63)" stroke="none" stroke-width="1px">5</text><text x="0" y="101.70685714285713" dx="0em" dy="0.3em" style="text-anchor: end; visibility: inherit; font-family: Roboto, sans-serif; font-size: 12px; font-weight: 200;" fill="rgb(50, 49, 63)" stroke="none" stroke-width="1px">10</text><text x="0" y="76.28014285714286" dx="0em" dy="0.3em" style="text-anchor: end; visibility: inherit; font-family: Roboto, sans-serif; font-size: 12px; font-weight: 200;" fill="rgb(50, 49, 63)" stroke="none" stroke-width="1px">15</text><text x="0" y="50.853428571428566" dx="0em" dy="0.3em" style="text-anchor: end; visibility: inherit; font-family: Roboto, sans-serif; font-size: 12px; font-weight: 200;" fill="rgb(50, 49, 63)" stroke="none" stroke-width="1px">20</text><text x="0" y="25.426714285714294" dx="0em" dy="0.3em" style="text-anchor: end; visibility: inherit; font-family: Roboto, sans-serif; font-size: 12px; font-weight: 200;" fill="rgb(50, 49, 63)" stroke="none" stroke-width="1px">25</text><text x="0" y="0" dx="0em" dy="0.3em" style="text-anchor: end; visibility: hidden; font-family: Roboto, sans-serif; font-size: 12px; font-weight: 200;" fill="rgb(50, 49, 63)" stroke="none" stroke-width="1px">30</text></g><line x1="30" y1="0" x2="30" y2="177.987" fill="rgb(0, 0, 0)" stroke="rgb(204, 204, 204)" stroke-width="1px"></line></g></g><g transform="translate(30, 0)" clip-path="url(#clip_0)"><clipPath id="clip_0"><rect width="299" height="177"></rect></clipPath><g><g><g><line x1="0" y1="0" x2="0" y2="177.987" fill="rgb(0, 0, 0)" stroke="rgb(60, 60, 60)" stroke-width="1px" opacity="0.25"></line><line x1="24.998916666666666" y1="0" x2="24.998916666666666" y2="177.987" fill="rgb(0, 0, 0)" stroke="rgb(60, 60, 60)" stroke-width="1px" opacity="0.25"></line><line x1="49.99783333333333" y1="0" x2="49.99783333333333" y2="177.987" fill="rgb(0, 0, 0)" stroke="rgb(60, 60, 60)" stroke-width="1px" opacity="0.25"></line><line x1="74.99675" y1="0" x2="74.99675" y2="177.987" fill="rgb(0, 0, 0)" stroke="rgb(60, 60, 60)" stroke-width="1px" opacity="0.25"></line><line x1="99.99566666666666" y1="0" x2="99.99566666666666" y2="177.987" fill="rgb(0, 0, 0)" stroke="rgb(60, 60, 60)" stroke-width="1px" opacity="0.25"></line><line x1="124.99458333333335" y1="0" x2="124.99458333333335" y2="177.987" fill="rgb(0, 0, 0)" stroke="rgb(60, 60, 60)" stroke-width="1px" opacity="0.25"></line><line x1="149.9935" y1="0" x2="149.9935" y2="177.987" fill="rgb(0, 0, 0)" stroke="rgb(60, 60, 60)" stroke-width="1px" opacity="0.25"></line><line x1="174.99241666666668" y1="0" x2="174.99241666666668" y2="177.987" fill="rgb(0, 0, 0)" stroke="rgb(60, 60, 60)" stroke-width="1px" opacity="0.25"></line><line x1="199.99133333333333" y1="0" x2="199.99133333333333" y2="177.987" fill="rgb(0, 0, 0)" stroke="rgb(60, 60, 60)" stroke-width="1px" opacity="0.25"></line><line x1="224.99025" y1="0" x2="224.99025" y2="177.987" fill="rgb(0, 0, 0)" stroke="rgb(60, 60, 60)" stroke-width="1px" opacity="0.25"></line><line x1="249.9891666666667" y1="0" x2="249.9891666666667" y2="177.987" fill="rgb(0, 0, 0)" stroke="rgb(60, 60, 60)" stroke-width="1px" opacity="0.25"></line><line x1="274.98808333333335" y1="0" x2="274.98808333333335" y2="177.987" fill="rgb(0, 0, 0)" stroke="rgb(60, 60, 60)" stroke-width="1px" opacity="0.25"></line><line x1="299.987" y1="0" x2="299.987" y2="177.987" fill="rgb(0, 0, 0)" stroke="rgb(60, 60, 60)" stroke-width="1px" opacity="0.25"></line></g><g><line x1="0" y1="177.987" x2="299.987" y2="177.987" fill="rgb(0, 0, 0)" stroke="rgb(60, 60, 60)" stroke-width="1px" opacity="0.25"></line><line x1="0" y1="152.56028571428573" x2="299.987" y2="152.56028571428573" fill="rgb(0, 0, 0)" stroke="rgb(60, 60, 60)" stroke-width="1px" opacity="0.25"></line><line x1="0" y1="127.13357142857143" x2="299.987" y2="127.13357142857143" fill="rgb(0, 0, 0)" stroke="rgb(60, 60, 60)" stroke-width="1px" opacity="0.25"></line><line x1="0" y1="101.70685714285713" x2="299.987" y2="101.70685714285713" fill="rgb(0, 0, 0)" stroke="rgb(60, 60, 60)" stroke-width="1px" opacity="0.25"></line><line x1="0" y1="76.28014285714286" x2="299.987" y2="76.28014285714286" fill="rgb(0, 0, 0)" stroke="rgb(60, 60, 60)" stroke-width="1px" opacity="0.25"></line><line x1="0" y1="50.853428571428566" x2="299.987" y2="50.853428571428566" fill="rgb(0, 0, 0)" stroke="rgb(60, 60, 60)" stroke-width="1px" opacity="0.25"></line><line x1="0" y1="25.426714285714294" x2="299.987" y2="25.426714285714294" fill="rgb(0, 0, 0)" stroke="rgb(60, 60, 60)" stroke-width="1px" opacity="0.25"></line><line x1="0" y1="0" x2="299.987" y2="0" fill="rgb(0, 0, 0)" stroke="rgb(60, 60, 60)" stroke-width="1px" opacity="0.25"></line></g></g></g><g><g><line x1="0" y1="152.56028571428573" x2="299.987" y2="152.56028571428573" fill="rgb(0, 0, 0)" stroke="rgb(153, 153, 153)" stroke-width="1.5px"></line></g></g><g><g><line x1="24.998916666666666" y1="0" x2="24.998916666666666" y2="177.987" fill="rgb(0, 0, 0)" stroke="rgb(153, 153, 153)" stroke-width="1.5px"></line></g></g><g><g><g><g><g><path stroke="rgb(0, 119, 187)" stroke-width="2px" d="M24.998916666666666,132.8995770117964L29.998700000000003,134.91607120957374L34.99848333333334,137.89179961041722L39.998266666666666,139.48791896060536L44.99805,137.74772291440283L49.99783333333333,138.31218779484885L54.997616666666666,135.69690453404698L59.997400000000006,135.82861918959617L64.99718333333334,118.56919198718754L69.99696666666668,136.7666720620496L74.99675,134.84770776786803L79.99653333333333,115.78641617243629L84.99631666666667,130.5147398383958L89.9961,128.39379391581673L94.99588333333334,128.78792185756137L99.99566666666666,124.1723147141729L104.99545,129.6414021750314L109.99523333333333,116.45659492795127L114.99501666666669,108.87915879838127L119.99480000000001,122.57434760509217L124.99458333333335,122.63121105132782L129.99436666666668,123.45401905615668L134.99415000000002,117.03884509395871L139.99393333333336,108.5797782099315L144.99371666666667,109.74732419177464L149.9935,110.64992773712702L154.99328333333335,117.78598955452783L159.99306666666666,113.11008048444475L164.99285000000003,113.22367885825292L169.99263333333334,119.09493516438347L174.99241666666668,112.1413892476763L179.9922,75.04474872068678L184.99198333333337,101.02704191248756L189.99176666666668,74.49019311414447L194.99155000000002,115.97330655743735L199.99133333333333,92.43099110772269L204.9911166666667,38.35250065432958L209.9909,103.10698795664652L214.99068333333335,62.62288645509992L219.99046666666666,81.52389345367978L224.99025,77.40880345630646L229.99003333333337,80.80523163871766L234.98981666666668,53.32518679651533L239.98960000000002,91.63962167775288L244.98938333333334,72.84003772830962L249.9891666666667,82.5162418239866L254.98895000000002,79.3185034947804L259.98873333333336,26.0864369567871L264.98851666666667,62.45394988485063L269.98830000000004,75.79186408269065" style="fill: none;" fill="none"></path></g><g><path stroke="rgb(255, 112, 67)" stroke-width="2px" d="M24.998916666666666,131.6586456608636L29.998700000000003,135.61353471976008L34.99848333333334,138.3246456180913L39.998266666666666,140.33028241371426L44.99805,138.4247410451889L49.99783333333333,134.9189119570051L54.997616666666666,133.2831421743597L59.997400000000006,130.8440143528666L64.99718333333334,128.36767795351574L69.99696666666668,128.2574792620795L74.99675,125.03298965189796L79.99653333333333,122.4017567400251L84.99631666666667,121.34199911846434L89.9961,118.12270845193862L94.99588333333334,113.75236099053791L99.99566666666666,111.63245534166607L104.99545,111.106717014231L109.99523333333333,107.59439409623826L114.99501666666669,103.82847718219757L119.99480000000001,103.46710695026943L124.99458333333335,98.2336281472615L129.99436666666668,96.27242849807739L134.99415000000002,92.51629355171748L139.99393333333336,90.06288682177407L144.99371666666667,86.39923196550096L149.9935,83.87773459290095L154.99328333333335,79.85239912000382L159.99306666666666,77.85551493031639L164.99285000000003,74.67529878714426L169.99263333333334,69.78679802431378L174.99241666666668,68.00161074649266L179.9922,61.13253553979055L184.99198333333337,62.004512845230096L189.99176666666668,58.782903993007125L194.99155000000002,52.420289314270015L199.99133333333333,49.26331807496207L204.9911166666667,46.519982940510346L209.9909,45.23760917047773L214.99068333333335,43.75851939991542L219.99046666666666,40.44701538015093L224.99025,36.616761538369325L229.99003333333337,35.492412376621786L234.98981666666668,33.276071657671245L239.98960000000002,31.242702716936392L244.98938333333334,29.270770546940398L249.9891666666667,27.306307008688787L254.98895000000002,26.122635571943007L259.98873333333336,24.79918432731628L264.98851666666667,21.102900279889777L269.98830000000004,17.876975140489844" style="fill: none;" fill="none"></path></g></g></g></g></g></g><g transform="translate(30, 177)" clip-path="url(#clip_1)"><clipPath id="clip_1"><rect width="299" height="21"></rect></clipPath><g><g><line x1="0" y1="0" x2="0" y2="5" style="visibility: inherit;" fill="rgb(0, 0, 0)" stroke="rgb(204, 204, 204)" stroke-width="1px"></line><line x1="24.998916666666666" y1="0" x2="24.998916666666666" y2="5" style="visibility: inherit;" fill="rgb(0, 0, 0)" stroke="rgb(204, 204, 204)" stroke-width="1px"></line><line x1="49.99783333333333" y1="0" x2="49.99783333333333" y2="5" style="visibility: inherit;" fill="rgb(0, 0, 0)" stroke="rgb(204, 204, 204)" stroke-width="1px"></line><line x1="74.99675" y1="0" x2="74.99675" y2="5" style="visibility: inherit;" fill="rgb(0, 0, 0)" stroke="rgb(204, 204, 204)" stroke-width="1px"></line><line x1="99.99566666666666" y1="0" x2="99.99566666666666" y2="5" style="visibility: inherit;" fill="rgb(0, 0, 0)" stroke="rgb(204, 204, 204)" stroke-width="1px"></line><line x1="124.99458333333335" y1="0" x2="124.99458333333335" y2="5" style="visibility: inherit;" fill="rgb(0, 0, 0)" stroke="rgb(204, 204, 204)" stroke-width="1px"></line><line x1="149.9935" y1="0" x2="149.9935" y2="5" style="visibility: inherit;" fill="rgb(0, 0, 0)" stroke="rgb(204, 204, 204)" stroke-width="1px"></line><line x1="174.99241666666668" y1="0" x2="174.99241666666668" y2="5" style="visibility: inherit;" fill="rgb(0, 0, 0)" stroke="rgb(204, 204, 204)" stroke-width="1px"></line><line x1="199.99133333333333" y1="0" x2="199.99133333333333" y2="5" style="visibility: inherit;" fill="rgb(0, 0, 0)" stroke="rgb(204, 204, 204)" stroke-width="1px"></line><line x1="224.99025" y1="0" x2="224.99025" y2="5" style="visibility: inherit;" fill="rgb(0, 0, 0)" stroke="rgb(204, 204, 204)" stroke-width="1px"></line><line x1="249.9891666666667" y1="0" x2="249.9891666666667" y2="5" style="visibility: inherit;" fill="rgb(0, 0, 0)" stroke="rgb(204, 204, 204)" stroke-width="1px"></line><line x1="274.98808333333335" y1="0" x2="274.98808333333335" y2="5" style="visibility: inherit;" fill="rgb(0, 0, 0)" stroke="rgb(204, 204, 204)" stroke-width="1px"></line><line x1="299.987" y1="0" x2="299.987" y2="5" style="visibility: inherit;" fill="rgb(0, 0, 0)" stroke="rgb(204, 204, 204)" stroke-width="1px"></line></g><g transform="translate(0, 8)"><text x="0" y="0" dx="0em" dy="0.95em" style="text-anchor: middle; visibility: hidden; font-family: Roboto, sans-serif; font-size: 12px; font-weight: 200;" fill="rgb(50, 49, 63)" stroke="none" stroke-width="1px">-5</text><text x="24.998916666666666" y="0" dx="0em" dy="0.95em" style="text-anchor: middle; visibility: inherit; font-family: Roboto, sans-serif; font-size: 12px; font-weight: 200;" fill="rgb(50, 49, 63)" stroke="none" stroke-width="1px">0</text><text x="49.99783333333333" y="0" dx="0em" dy="0.95em" style="text-anchor: middle; visibility: inherit; font-family: Roboto, sans-serif; font-size: 12px; font-weight: 200;" fill="rgb(50, 49, 63)" stroke="none" stroke-width="1px">5</text><text x="74.99675" y="0" dx="0em" dy="0.95em" style="text-anchor: middle; visibility: inherit; font-family: Roboto, sans-serif; font-size: 12px; font-weight: 200;" fill="rgb(50, 49, 63)" stroke="none" stroke-width="1px">10</text><text x="99.99566666666666" y="0" dx="0em" dy="0.95em" style="text-anchor: middle; visibility: inherit; font-family: Roboto, sans-serif; font-size: 12px; font-weight: 200;" fill="rgb(50, 49, 63)" stroke="none" stroke-width="1px">15</text><text x="124.99458333333335" y="0" dx="0em" dy="0.95em" style="text-anchor: middle; visibility: inherit; font-family: Roboto, sans-serif; font-size: 12px; font-weight: 200;" fill="rgb(50, 49, 63)" stroke="none" stroke-width="1px">20</text><text x="149.9935" y="0" dx="0em" dy="0.95em" style="text-anchor: middle; visibility: inherit; font-family: Roboto, sans-serif; font-size: 12px; font-weight: 200;" fill="rgb(50, 49, 63)" stroke="none" stroke-width="1px">25</text><text x="174.99241666666668" y="0" dx="0em" dy="0.95em" style="text-anchor: middle; visibility: inherit; font-family: Roboto, sans-serif; font-size: 12px; font-weight: 200;" fill="rgb(50, 49, 63)" stroke="none" stroke-width="1px">30</text><text x="199.99133333333333" y="0" dx="0em" dy="0.95em" style="text-anchor: middle; visibility: inherit; font-family: Roboto, sans-serif; font-size: 12px; font-weight: 200;" fill="rgb(50, 49, 63)" stroke="none" stroke-width="1px">35</text><text x="224.99025" y="0" dx="0em" dy="0.95em" style="text-anchor: middle; visibility: inherit; font-family: Roboto, sans-serif; font-size: 12px; font-weight: 200;" fill="rgb(50, 49, 63)" stroke="none" stroke-width="1px">40</text><text x="249.9891666666667" y="0" dx="0em" dy="0.95em" style="text-anchor: middle; visibility: inherit; font-family: Roboto, sans-serif; font-size: 12px; font-weight: 200;" fill="rgb(50, 49, 63)" stroke="none" stroke-width="1px">45</text><text x="274.98808333333335" y="0" dx="0em" dy="0.95em" style="text-anchor: middle; visibility: inherit; font-family: Roboto, sans-serif; font-size: 12px; font-weight: 200;" fill="rgb(50, 49, 63)" stroke="none" stroke-width="1px">50</text><text x="299.987" y="0" dx="0em" dy="0.95em" style="text-anchor: middle; visibility: hidden; font-family: Roboto, sans-serif; font-size: 12px; font-weight: 200;" fill="rgb(50, 49, 63)" stroke="none" stroke-width="1px">55</text></g><line x1="0" y1="0" x2="299.987" y2="0" fill="rgb(0, 0, 0)" stroke="rgb(204, 204, 204)" stroke-width="1px"></line></g></g></g></g></svg>