<svg viewBox="0 0 329.98699951171875 199.9865264892578" xmlns="http://www.w3.org/2000/svg"><g><g><g><g><g><line x1="50" y1="173.9091458841948" x2="45" y2="173.9091458841948" style="visibility: inherit;" fill="rgb(0, 0, 0)" stroke="rgb(204, 204, 204)" stroke-width="1px"></line><line x1="50" y1="152.37814705295287" x2="45" y2="152.37814705295287" style="visibility: inherit;" fill="rgb(0, 0, 0)" stroke="rgb(204, 204, 204)" stroke-width="1px"></line><line x1="50" y1="130.84714822171094" x2="45" y2="130.84714822171094" style="visibility: inherit;" fill="rgb(0, 0, 0)" stroke="rgb(204, 204, 204)" stroke-width="1px"></line><line x1="50" y1="109.31614939046898" x2="45" y2="109.31614939046898" style="visibility: inherit;" fill="rgb(0, 0, 0)" stroke="rgb(204, 204, 204)" stroke-width="1px"></line><line x1="50" y1="87.78515055922703" x2="45" y2="87.78515055922703" style="visibility: inherit;" fill="rgb(0, 0, 0)" stroke="rgb(204, 204, 204)" stroke-width="1px"></line><line x1="50" y1="66.25415172798512" x2="45" y2="66.25415172798512" style="visibility: inherit;" fill="rgb(0, 0, 0)" stroke="rgb(204, 204, 204)" stroke-width="1px"></line><line x1="50" y1="44.723152896743194" x2="45" y2="44.723152896743194" style="visibility: inherit;" fill="rgb(0, 0, 0)" stroke="rgb(204, 204, 204)" stroke-width="1px"></line><line x1="50" y1="23.192154065501242" x2="45" y2="23.192154065501242" style="visibility: inherit;" fill="rgb(0, 0, 0)" stroke="rgb(204, 204, 204)" stroke-width="1px"></line><line x1="50" y1="1.661155234259294" x2="45" y2="1.661155234259294" style="visibility: inherit;" fill="rgb(0, 0, 0)" stroke="rgb(204, 204, 204)" stroke-width="1px"></line></g><g transform="translate(40, 0)"><text x="0" y="173.9091458841948" dx="0em" dy="0.3em" style="text-anchor: end; visibility: hidden; font-family: Roboto, sans-serif; font-size: 12px; font-weight: 200;" fill="rgb(50, 49, 63)" stroke="none" stroke-width="1px">0</text><text x="0" y="152.37814705295287" dx="0em" dy="0.3em" style="text-anchor: end; visibility: inherit; font-family: Roboto, sans-serif; font-size: 12px; font-weight: 200;" fill="rgb(50, 49, 63)" stroke="none" stroke-width="1px">0.05</text><text x="0" y="130.84714822171094" dx="0em" dy="0.3em" style="text-anchor: end; visibility: hidden; font-family: Roboto, sans-serif; font-size: 12px; font-weight: 200;" fill="rgb(50, 49, 63)" stroke="none" stroke-width="1px">0.1</text><text x="0" y="109.31614939046898" dx="0em" dy="0.3em" style="text-anchor: end; visibility: inherit; font-family: Roboto, sans-serif; font-size: 12px; font-weight: 200;" fill="rgb(50, 49, 63)" stroke="none" stroke-width="1px">0.15</text><text x="0" y="87.78515055922703" dx="0em" dy="0.3em" style="text-anchor: end; visibility: hidden; font-family: Roboto, sans-serif; font-size: 12px; font-weight: 200;" fill="rgb(50, 49, 63)" stroke="none" stroke-width="1px">0.2</text><text x="0" y="66.25415172798512" dx="0em" dy="0.3em" style="text-anchor: end; visibility: inherit; font-family: Roboto, sans-serif; font-size: 12px; font-weight: 200;" fill="rgb(50, 49, 63)" stroke="none" stroke-width="1px">0.25</text><text x="0" y="44.723152896743194" dx="0em" dy="0.3em" style="text-anchor: end; visibility: hidden; font-family: Roboto, sans-serif; font-size: 12px; font-weight: 200;" fill="rgb(50, 49, 63)" stroke="none" stroke-width="1px">0.3</text><text x="0" y="23.192154065501242" dx="0em" dy="0.3em" style="text-anchor: end; visibility: inherit; font-family: Roboto, sans-serif; font-size: 12px; font-weight: 200;" fill="rgb(50, 49, 63)" stroke="none" stroke-width="1px">0.35</text><text x="0" y="1.661155234259294" dx="0em" dy="0.3em" style="text-anchor: end; visibility: hidden; font-family: Roboto, sans-serif; font-size: 12px; font-weight: 200;" fill="rgb(50, 49, 63)" stroke="none" stroke-width="1px">0.4</text></g><line x1="50" y1="0" x2="50" y2="177.987" fill="rgb(0, 0, 0)" stroke="rgb(204, 204, 204)" stroke-width="1px"></line></g></g><g transform="translate(50, 0)" clip-path="url(#clip_0)"><clipPath id="clip_0"><rect width="279" height="177"></rect></clipPath><g><g><g><line x1="21.987466131707873" y1="0" x2="21.987466131707873" y2="177.987" fill="rgb(0, 0, 0)" stroke="rgb(60, 60, 60)" stroke-width="1px" opacity="0.25"></line><line x1="44.567391518629016" y1="0" x2="44.567391518629016" y2="177.987" fill="rgb(0, 0, 0)" stroke="rgb(60, 60, 60)" stroke-width="1px" opacity="0.25"></line><line x1="67.14731690555017" y1="0" x2="67.14731690555017" y2="177.987" fill="rgb(0, 0, 0)" stroke="rgb(60, 60, 60)" stroke-width="1px" opacity="0.25"></line><line x1="89.7272422924713" y1="0" x2="89.7272422924713" y2="177.987" fill="rgb(0, 0, 0)" stroke="rgb(60, 60, 60)" stroke-width="1px" opacity="0.25"></line><line x1="112.30716767939245" y1="0" x2="112.30716767939245" y2="177.987" fill="rgb(0, 0, 0)" stroke="rgb(60, 60, 60)" stroke-width="1px" opacity="0.25"></line><line x1="134.88709306631358" y1="0" x2="134.88709306631358" y2="177.987" fill="rgb(0, 0, 0)" stroke="rgb(60, 60, 60)" stroke-width="1px" opacity="0.25"></line><line x1="157.46701845323474" y1="0" x2="157.46701845323474" y2="177.987" fill="rgb(0, 0, 0)" stroke="rgb(60, 60, 60)" stroke-width="1px" opacity="0.25"></line><line x1="180.04694384015588" y1="0" x2="180.04694384015588" y2="177.987" fill="rgb(0, 0, 0)" stroke="rgb(60, 60, 60)" stroke-width="1px" opacity="0.25"></line><line x1="202.62686922707707" y1="0" x2="202.62686922707707" y2="177.987" fill="rgb(0, 0, 0)" stroke="rgb(60, 60, 60)" stroke-width="1px" opacity="0.25"></line><line x1="225.2067946139982" y1="0" x2="225.2067946139982" y2="177.987" fill="rgb(0, 0, 0)" stroke="rgb(60, 60, 60)" stroke-width="1px" opacity="0.25"></line><line x1="247.78672000091933" y1="0" x2="247.78672000091933" y2="177.987" fill="rgb(0, 0, 0)" stroke="rgb(60, 60, 60)" stroke-width="1px" opacity="0.25"></line><line x1="270.3666453878405" y1="0" x2="270.3666453878405" y2="177.987" fill="rgb(0, 0, 0)" stroke="rgb(60, 60, 60)" stroke-width="1px" opacity="0.25"></line></g><g><line x1="0" y1="173.9091458841948" x2="279.987" y2="173.9091458841948" fill="rgb(0, 0, 0)" stroke="rgb(60, 60, 60)" stroke-width="1px" opacity="0.25"></line><line x1="0" y1="152.37814705295287" x2="279.987" y2="152.37814705295287" fill="rgb(0, 0, 0)" stroke="rgb(60, 60, 60)" stroke-width="1px" opacity="0.25"></line><line x1="0" y1="130.84714822171094" x2="279.987" y2="130.84714822171094" fill="rgb(0, 0, 0)" stroke="rgb(60, 60, 60)" stroke-width="1px" opacity="0.25"></line><line x1="0" y1="109.31614939046898" x2="279.987" y2="109.31614939046898" fill="rgb(0, 0, 0)" stroke="rgb(60, 60, 60)" stroke-width="1px" opacity="0.25"></line><line x1="0" y1="87.78515055922703" x2="279.987" y2="87.78515055922703" fill="rgb(0, 0, 0)" stroke="rgb(60, 60, 60)" stroke-width="1px" opacity="0.25"></line><line x1="0" y1="66.25415172798512" x2="279.987" y2="66.25415172798512" fill="rgb(0, 0, 0)" stroke="rgb(60, 60, 60)" stroke-width="1px" opacity="0.25"></line><line x1="0" y1="44.723152896743194" x2="279.987" y2="44.723152896743194" fill="rgb(0, 0, 0)" stroke="rgb(60, 60, 60)" stroke-width="1px" opacity="0.25"></line><line x1="0" y1="23.192154065501242" x2="279.987" y2="23.192154065501242" fill="rgb(0, 0, 0)" stroke="rgb(60, 60, 60)" stroke-width="1px" opacity="0.25"></line><line x1="0" y1="1.661155234259294" x2="279.987" y2="1.661155234259294" fill="rgb(0, 0, 0)" stroke="rgb(60, 60, 60)" stroke-width="1px" opacity="0.25"></line></g></g></g><g><g><line x1="0" y1="173.9091458841948" x2="279.987" y2="173.9091458841948" fill="rgb(0, 0, 0)" stroke="rgb(153, 153, 153)" stroke-width="1.5px"></line></g></g><g><g><line x1="21.987466131707873" y1="0" x2="21.987466131707873" y2="177.987" fill="rgb(0, 0, 0)" stroke="rgb(153, 153, 153)" stroke-width="1.5px"></line></g></g><g><g><g><g><g><path stroke="rgb(0, 119, 187)" stroke-width="2px" d="M21.987466131707873,124.8924888008613L26.503451209092106,84.23449239506093L31.01943628647633,45.56327839497179L35.535421363860564,18.514714197157975L40.051406441244794,52.46023189481777L44.567391518629016,42.28509544647041L49.083376596013245,69.92969115762872L53.59936167339748,71.67521705986013L58.11534675078171,80.16159648427507L62.63133182816594,60.492498793266854L67.14731690555017,97.105980519062L71.6633019829344,104.96794078261411L76.17928706031861,88.67636355620836L80.69527213770284,121.3730557656178L85.21125721508707,108.21774250033481L89.7272422924713,122.12519046499362L94.24322736985553,115.15727747145831L98.75921244723976,118.26516661853805L103.275197524624,126.32580833103012L107.79118260200823,122.94828465805875L112.30716767939245,131.64753614680401L116.82315275677668,127.24824004019638L121.33913783416091,126.58125224153139L125.85512291154514,135.36565063098743L130.37110798892937,139.6088403431949L134.88709306631358,131.1224577104111L139.40307814369783,136.24550728561388L143.91906322108207,145.78204358281457L148.43504829846628,139.83589981454668L152.95103337585053,133.1943838084643L157.46701845323474,144.17843025122414L161.983003530619,146.5909471604894L166.4989886080032,140.11972495582862L171.01497368538742,149.1879484865666L175.53095876277166,137.9200769025248L180.04694384015588,149.32986105720755L184.56292891754012,157.47565287877927L189.07891399492433,143.99394262604335L193.59489907230858,152.87768013578497L198.1108841496928,155.91461139335982L202.62686922707707,158.923161420154L207.14285430446128,160.8531749475662L211.6588393818455,163.22311760438384L216.17482445922974,156.7235149710346L220.69080953661395,166.7283616284214L225.2067946139982,152.23907196371619L229.7227796913824,161.03766177065478L234.23876476876666,161.13700089094036L238.75474984615087,168.0339592033396L243.2707349235351,167.04056960466843" style="fill: none;" fill="none"></path></g><g><path stroke="rgb(255, 112, 67)" stroke-width="2px" d="M21.987466131707873,142.2598930591615L26.503451209092106,90.364382655307L31.01943628647633,45.98351054596097L35.535421363860564,8.910077062906613L40.051406441244794,24.487862805973098L44.567391518629016,50.40210178278731L49.083376596013245,57.99596432912334L53.59936167339748,63.29217277912408L58.11534675078171,75.68859131188013L62.63133182816594,67.59496115094962L67.14731690555017,87.20737979798643L71.6633019829344,95.74591446630487L76.17928706031861,95.87999861697016L80.69527213770284,112.64014527934602L85.21125721508707,121.61748855425166L89.7272422924713,130.11945423450342L94.24322736985553,127.18185568047645L98.75921244723976,129.9609928973729L103.275197524624,139.08460891617645L107.79118260200823,132.84373796929984L112.30716767939245,141.16896102675656L116.82315275677668,140.15725645454805L121.33913783416091,143.8871520691211L125.85512291154514,144.12484086644804L130.37110798892937,147.6353305735431L134.88709306631358,149.00661468795798L139.40307814369783,149.94518288821754L143.91906322108207,153.6263209214913L148.43504829846628,152.7365086983466L152.95103337585053,151.79794049808703L157.46701845323474,151.75527881758848L161.983003530619,156.23480981220902L166.4989886080032,155.84475557855228L171.01497368538742,154.37595630153882L175.53095876277166,156.49078310356933L180.04694384015588,159.3552436814629L184.56292891754012,159.49541892037567L189.07891399492433,159.06270300622037L193.59489907230858,160.06221738101183L198.1108841496928,161.08001544774447L202.62686922707707,161.40302921025298L207.14285430446128,162.23798875338986L211.6588393818455,162.1648539856253L216.17482445922974,163.13998956976715L220.69080953661395,163.6275573618381L225.2067946139982,163.44471964033454L229.7227796913824,163.60317937328062L234.23876476876666,164.761152678926L238.75474984615087,164.44423401512603L243.2707349235351,164.82209885345796" style="fill: none;" fill="none"></path></g></g></g></g></g></g><g transform="translate(50, 177)" clip-path="url(#clip_1)"><clipPath id="clip_1"><rect width="279" height="21"></rect></clipPath><g><g><line x1="21.987466131707873" y1="0" x2="21.987466131707873" y2="5" style="visibility: inherit;" fill="rgb(0, 0, 0)" stroke="rgb(204, 204, 204)" stroke-width="1px"></line><line x1="44.567391518629016" y1="0" x2="44.567391518629016" y2="5" style="visibility: inherit;" fill="rgb(0, 0, 0)" stroke="rgb(204, 204, 204)" stroke-width="1px"></line><line x1="67.14731690555017" y1="0" x2="67.14731690555017" y2="5" style="visibility: inherit;" fill="rgb(0, 0, 0)" stroke="rgb(204, 204, 204)" stroke-width="1px"></line><line x1="89.7272422924713" y1="0" x2="89.7272422924713" y2="5" style="visibility: inherit;" fill="rgb(0, 0, 0)" stroke="rgb(204, 204, 204)" stroke-width="1px"></line><line x1="112.30716767939245" y1="0" x2="112.30716767939245" y2="5" style="visibility: inherit;" fill="rgb(0, 0, 0)" stroke="rgb(204, 204, 204)" stroke-width="1px"></line><line x1="134.88709306631358" y1="0" x2="134.88709306631358" y2="5" style="visibility: inherit;" fill="rgb(0, 0, 0)" stroke="rgb(204, 204, 204)" stroke-width="1px"></line><line x1="157.46701845323474" y1="0" x2="157.46701845323474" y2="5" style="visibility: inherit;" fill="rgb(0, 0, 0)" stroke="rgb(204, 204, 204)" stroke-width="1px"></line><line x1="180.04694384015588" y1="0" x2="180.04694384015588" y2="5" style="visibility: inherit;" fill="rgb(0, 0, 0)" stroke="rgb(204, 204, 204)" stroke-width="1px"></line><line x1="202.62686922707707" y1="0" x2="202.62686922707707" y2="5" style="visibility: inherit;" fill="rgb(0, 0, 0)" stroke="rgb(204, 204, 204)" stroke-width="1px"></line><line x1="225.2067946139982" y1="0" x2="225.2067946139982" y2="5" style="visibility: inherit;" fill="rgb(0, 0, 0)" stroke="rgb(204, 204, 204)" stroke-width="1px"></line><line x1="247.78672000091933" y1="0" x2="247.78672000091933" y2="5" style="visibility: inherit;" fill="rgb(0, 0, 0)" stroke="rgb(204, 204, 204)" stroke-width="1px"></line><line x1="270.3666453878405" y1="0" x2="270.3666453878405" y2="5" style="visibility: inherit;" fill="rgb(0, 0, 0)" stroke="rgb(204, 204, 204)" stroke-width="1px"></line></g><g transform="translate(0, 8)"><text x="21.987466131707873" y="0" dx="0em" dy="0.95em" style="text-anchor: middle; visibility: inherit; font-family: Roboto, sans-serif; font-size: 12px; font-weight: 200;" fill="rgb(50, 49, 63)" stroke="none" stroke-width="1px">0</text><text x="44.567391518629016" y="0" dx="0em" dy="0.95em" style="text-anchor: middle; visibility: inherit; font-family: Roboto, sans-serif; font-size: 12px; font-weight: 200;" fill="rgb(50, 49, 63)" stroke="none" stroke-width="1px">5</text><text x="67.14731690555017" y="0" dx="0em" dy="0.95em" style="text-anchor: middle; visibility: inherit; font-family: Roboto, sans-serif; font-size: 12px; font-weight: 200;" fill="rgb(50, 49, 63)" stroke="none" stroke-width="1px">10</text><text x="89.7272422924713" y="0" dx="0em" dy="0.95em" style="text-anchor: middle; visibility: inherit; font-family: Roboto, sans-serif; font-size: 12px; font-weight: 200;" fill="rgb(50, 49, 63)" stroke="none" stroke-width="1px">15</text><text x="112.30716767939245" y="0" dx="0em" dy="0.95em" style="text-anchor: middle; visibility: inherit; font-family: Roboto, sans-serif; font-size: 12px; font-weight: 200;" fill="rgb(50, 49, 63)" stroke="none" stroke-width="1px">20</text><text x="134.88709306631358" y="0" dx="0em" dy="0.95em" style="text-anchor: middle; visibility: inherit; font-family: Roboto, sans-serif; font-size: 12px; font-weight: 200;" fill="rgb(50, 49, 63)" stroke="none" stroke-width="1px">25</text><text x="157.46701845323474" y="0" dx="0em" dy="0.95em" style="text-anchor: middle; visibility: inherit; font-family: Roboto, sans-serif; font-size: 12px; font-weight: 200;" fill="rgb(50, 49, 63)" stroke="none" stroke-width="1px">30</text><text x="180.04694384015588" y="0" dx="0em" dy="0.95em" style="text-anchor: middle; visibility: inherit; font-family: Roboto, sans-serif; font-size: 12px; font-weight: 200;" fill="rgb(50, 49, 63)" stroke="none" stroke-width="1px">35</text><text x="202.62686922707707" y="0" dx="0em" dy="0.95em" style="text-anchor: middle; visibility: inherit; font-family: Roboto, sans-serif; font-size: 12px; font-weight: 200;" fill="rgb(50, 49, 63)" stroke="none" stroke-width="1px">40</text><text x="225.2067946139982" y="0" dx="0em" dy="0.95em" style="text-anchor: middle; visibility: inherit; font-family: Roboto, sans-serif; font-size: 12px; font-weight: 200;" fill="rgb(50, 49, 63)" stroke="none" stroke-width="1px">45</text><text x="247.78672000091933" y="0" dx="0em" dy="0.95em" style="text-anchor: middle; visibility: inherit; font-family: Roboto, sans-serif; font-size: 12px; font-weight: 200;" fill="rgb(50, 49, 63)" stroke="none" stroke-width="1px">50</text><text x="270.3666453878405" y="0" dx="0em" dy="0.95em" style="text-anchor: middle; visibility: inherit; font-family: Roboto, sans-serif; font-size: 12px; font-weight: 200;" fill="rgb(50, 49, 63)" stroke="none" stroke-width="1px">55</text></g><line x1="0" y1="0" x2="279.987" y2="0" fill="rgb(0, 0, 0)" stroke="rgb(204, 204, 204)" stroke-width="1px"></line></g></g></g></g></svg>