<svg viewBox="0 0 329.98699951171875 199.9865264892578" xmlns="http://www.w3.org/2000/svg"><g><g><g><g><g><line x1="50" y1="177.987" x2="45" y2="177.987" style="visibility: inherit;" fill="rgb(0, 0, 0)" stroke="rgb(204, 204, 204)" stroke-width="1px"></line><line x1="50" y1="160.1883" x2="45" y2="160.1883" style="visibility: inherit;" fill="rgb(0, 0, 0)" stroke="rgb(204, 204, 204)" stroke-width="1px"></line><line x1="50" y1="142.3896" x2="45" y2="142.3896" style="visibility: inherit;" fill="rgb(0, 0, 0)" stroke="rgb(204, 204, 204)" stroke-width="1px"></line><line x1="50" y1="124.59089999999999" x2="45" y2="124.59089999999999" style="visibility: inherit;" fill="rgb(0, 0, 0)" stroke="rgb(204, 204, 204)" stroke-width="1px"></line><line x1="50" y1="106.7922" x2="45" y2="106.7922" style="visibility: inherit;" fill="rgb(0, 0, 0)" stroke="rgb(204, 204, 204)" stroke-width="1px"></line><line x1="50" y1="88.9935" x2="45" y2="88.9935" style="visibility: inherit;" fill="rgb(0, 0, 0)" stroke="rgb(204, 204, 204)" stroke-width="1px"></line><line x1="50" y1="71.1948" x2="45" y2="71.1948" style="visibility: inherit;" fill="rgb(0, 0, 0)" stroke="rgb(204, 204, 204)" stroke-width="1px"></line><line x1="50" y1="53.396100000000004" x2="45" y2="53.396100000000004" style="visibility: inherit;" fill="rgb(0, 0, 0)" stroke="rgb(204, 204, 204)" stroke-width="1px"></line><line x1="50" y1="35.59740000000001" x2="45" y2="35.59740000000001" style="visibility: inherit;" fill="rgb(0, 0, 0)" stroke="rgb(204, 204, 204)" stroke-width="1px"></line><line x1="50" y1="17.798699999999997" x2="45" y2="17.798699999999997" style="visibility: inherit;" fill="rgb(0, 0, 0)" stroke="rgb(204, 204, 204)" stroke-width="1px"></line><line x1="50" y1="0" x2="45" y2="0" style="visibility: inherit;" fill="rgb(0, 0, 0)" stroke="rgb(204, 204, 204)" stroke-width="1px"></line></g><g transform="translate(40, 0)"><text x="0" y="177.987" dx="0em" dy="0.3em" style="text-anchor: end; visibility: hidden; font-family: Roboto, sans-serif; font-size: 12px; font-weight: 200;" fill="rgb(50, 49, 63)" stroke="none" stroke-width="1px">-0.2</text><text x="0" y="160.1883" dx="0em" dy="0.3em" style="text-anchor: end; visibility: inherit; font-family: Roboto, sans-serif; font-size: 12px; font-weight: 200;" fill="rgb(50, 49, 63)" stroke="none" stroke-width="1px">0</text><text x="0" y="142.3896" dx="0em" dy="0.3em" style="text-anchor: end; visibility: hidden; font-family: Roboto, sans-serif; font-size: 12px; font-weight: 200;" fill="rgb(50, 49, 63)" stroke="none" stroke-width="1px">0.2</text><text x="0" y="124.59089999999999" dx="0em" dy="0.3em" style="text-anchor: end; visibility: inherit; font-family: Roboto, sans-serif; font-size: 12px; font-weight: 200;" fill="rgb(50, 49, 63)" stroke="none" stroke-width="1px">0.4</text><text x="0" y="106.7922" dx="0em" dy="0.3em" style="text-anchor: end; visibility: hidden; font-family: Roboto, sans-serif; font-size: 12px; font-weight: 200;" fill="rgb(50, 49, 63)" stroke="none" stroke-width="1px">0.6</text><text x="0" y="88.9935" dx="0em" dy="0.3em" style="text-anchor: end; visibility: inherit; font-family: Roboto, sans-serif; font-size: 12px; font-weight: 200;" fill="rgb(50, 49, 63)" stroke="none" stroke-width="1px">0.8</text><text x="0" y="71.1948" dx="0em" dy="0.3em" style="text-anchor: end; visibility: hidden; font-family: Roboto, sans-serif; font-size: 12px; font-weight: 200;" fill="rgb(50, 49, 63)" stroke="none" stroke-width="1px">1</text><text x="0" y="53.396100000000004" dx="0em" dy="0.3em" style="text-anchor: end; visibility: inherit; font-family: Roboto, sans-serif; font-size: 12px; font-weight: 200;" fill="rgb(50, 49, 63)" stroke="none" stroke-width="1px">1.2</text><text x="0" y="35.59740000000001" dx="0em" dy="0.3em" style="text-anchor: end; visibility: hidden; font-family: Roboto, sans-serif; font-size: 12px; font-weight: 200;" fill="rgb(50, 49, 63)" stroke="none" stroke-width="1px">1.4</text><text x="0" y="17.798699999999997" dx="0em" dy="0.3em" style="text-anchor: end; visibility: inherit; font-family: Roboto, sans-serif; font-size: 12px; font-weight: 200;" fill="rgb(50, 49, 63)" stroke="none" stroke-width="1px">1.6</text><text x="0" y="0" dx="0em" dy="0.3em" style="text-anchor: end; visibility: hidden; font-family: Roboto, sans-serif; font-size: 12px; font-weight: 200;" fill="rgb(50, 49, 63)" stroke="none" stroke-width="1px">1.8</text></g><line x1="50" y1="0" x2="50" y2="177.987" fill="rgb(0, 0, 0)" stroke="rgb(204, 204, 204)" stroke-width="1px"></line></g></g><g transform="translate(50, 0)" clip-path="url(#clip_0)"><clipPath id="clip_0"><rect width="279" height="177"></rect></clipPath><g><g><g><line x1="0" y1="0" x2="0" y2="177.987" fill="rgb(0, 0, 0)" stroke="rgb(60, 60, 60)" stroke-width="1px" opacity="0.25"></line><line x1="23.332250000000002" y1="0" x2="23.332250000000002" y2="177.987" fill="rgb(0, 0, 0)" stroke="rgb(60, 60, 60)" stroke-width="1px" opacity="0.25"></line><line x1="46.664500000000004" y1="0" x2="46.664500000000004" y2="177.987" fill="rgb(0, 0, 0)" stroke="rgb(60, 60, 60)" stroke-width="1px" opacity="0.25"></line><line x1="69.99675" y1="0" x2="69.99675" y2="177.987" fill="rgb(0, 0, 0)" stroke="rgb(60, 60, 60)" stroke-width="1px" opacity="0.25"></line><line x1="93.32900000000001" y1="0" x2="93.32900000000001" y2="177.987" fill="rgb(0, 0, 0)" stroke="rgb(60, 60, 60)" stroke-width="1px" opacity="0.25"></line><line x1="116.66125000000001" y1="0" x2="116.66125000000001" y2="177.987" fill="rgb(0, 0, 0)" stroke="rgb(60, 60, 60)" stroke-width="1px" opacity="0.25"></line><line x1="139.9935" y1="0" x2="139.9935" y2="177.987" fill="rgb(0, 0, 0)" stroke="rgb(60, 60, 60)" stroke-width="1px" opacity="0.25"></line><line x1="163.32575000000003" y1="0" x2="163.32575000000003" y2="177.987" fill="rgb(0, 0, 0)" stroke="rgb(60, 60, 60)" stroke-width="1px" opacity="0.25"></line><line x1="186.65800000000002" y1="0" x2="186.65800000000002" y2="177.987" fill="rgb(0, 0, 0)" stroke="rgb(60, 60, 60)" stroke-width="1px" opacity="0.25"></line><line x1="209.99025" y1="0" x2="209.99025" y2="177.987" fill="rgb(0, 0, 0)" stroke="rgb(60, 60, 60)" stroke-width="1px" opacity="0.25"></line><line x1="233.32250000000002" y1="0" x2="233.32250000000002" y2="177.987" fill="rgb(0, 0, 0)" stroke="rgb(60, 60, 60)" stroke-width="1px" opacity="0.25"></line><line x1="256.65475000000004" y1="0" x2="256.65475000000004" y2="177.987" fill="rgb(0, 0, 0)" stroke="rgb(60, 60, 60)" stroke-width="1px" opacity="0.25"></line><line x1="279.987" y1="0" x2="279.987" y2="177.987" fill="rgb(0, 0, 0)" stroke="rgb(60, 60, 60)" stroke-width="1px" opacity="0.25"></line></g><g><line x1="0" y1="177.987" x2="279.987" y2="177.987" fill="rgb(0, 0, 0)" stroke="rgb(60, 60, 60)" stroke-width="1px" opacity="0.25"></line><line x1="0" y1="160.1883" x2="279.987" y2="160.1883" fill="rgb(0, 0, 0)" stroke="rgb(60, 60, 60)" stroke-width="1px" opacity="0.25"></line><line x1="0" y1="142.3896" x2="279.987" y2="142.3896" fill="rgb(0, 0, 0)" stroke="rgb(60, 60, 60)" stroke-width="1px" opacity="0.25"></line><line x1="0" y1="124.59089999999999" x2="279.987" y2="124.59089999999999" fill="rgb(0, 0, 0)" stroke="rgb(60, 60, 60)" stroke-width="1px" opacity="0.25"></line><line x1="0" y1="106.7922" x2="279.987" y2="106.7922" fill="rgb(0, 0, 0)" stroke="rgb(60, 60, 60)" stroke-width="1px" opacity="0.25"></line><line x1="0" y1="88.9935" x2="279.987" y2="88.9935" fill="rgb(0, 0, 0)" stroke="rgb(60, 60, 60)" stroke-width="1px" opacity="0.25"></line><line x1="0" y1="71.1948" x2="279.987" y2="71.1948" fill="rgb(0, 0, 0)" stroke="rgb(60, 60, 60)" stroke-width="1px" opacity="0.25"></line><line x1="0" y1="53.396100000000004" x2="279.987" y2="53.396100000000004" fill="rgb(0, 0, 0)" stroke="rgb(60, 60, 60)" stroke-width="1px" opacity="0.25"></line><line x1="0" y1="35.59740000000001" x2="279.987" y2="35.59740000000001" fill="rgb(0, 0, 0)" stroke="rgb(60, 60, 60)" stroke-width="1px" opacity="0.25"></line><line x1="0" y1="17.798699999999997" x2="279.987" y2="17.798699999999997" fill="rgb(0, 0, 0)" stroke="rgb(60, 60, 60)" stroke-width="1px" opacity="0.25"></line><line x1="0" y1="0" x2="279.987" y2="0" fill="rgb(0, 0, 0)" stroke="rgb(60, 60, 60)" stroke-width="1px" opacity="0.25"></line></g></g></g><g><g><line x1="0" y1="160.1883" x2="279.987" y2="160.1883" fill="rgb(0, 0, 0)" stroke="rgb(153, 153, 153)" stroke-width="1.5px"></line></g></g><g><g><line x1="23.332250000000002" y1="0" x2="23.332250000000002" y2="177.987" fill="rgb(0, 0, 0)" stroke="rgb(153, 153, 153)" stroke-width="1.5px"></line></g></g><g><g><g><g><g><path stroke="rgb(51, 187, 238)" stroke-width="2px" d="M23.332250000000002,19.803261664259438L27.998700000000003,28.879320127862695L32.665150000000004,34.939602424185146L37.3316,39.12092244670619L41.99805,42.279346342661235L46.664500000000004,44.659829805985815L51.33095,46.45865729119157L55.997400000000006,47.746113871543244L60.663850000000004,48.762309096147725L65.33030000000001,49.563069203559444L69.99675,50.099342591921385L74.6632,50.49136953614511L79.32965,50.84823418063152L83.9961,50.93594791402277L88.66255000000001,51.02857180122846L93.32900000000001,50.97906522647737L97.99545,50.95739611570345L102.6619,50.7928532525339L107.32835000000001,50.70296533297911L111.99480000000001,50.62086218970192L116.66125000000001,50.51082490085411L121.32770000000001,50.33098232394122L125.99415000000002,50.107555470228334L130.66060000000002,50.00939676867807L135.32705,49.93338335331157L139.9935,49.68039749506353L144.65995000000004,49.49848981668048L149.3264,49.20629584200715L153.99285000000003,49.01198972012619L158.6593,48.72051276511147L163.32575000000003,48.472001191324075L167.9922,48.01573403259243L172.65865000000002,47.83833184531972L177.32510000000002,47.54332031205154L181.99155000000002,47.45743494988892L186.65800000000002,47.15595917996715L191.32445,46.957178708492265L195.9909,46.61988578821976L200.65735,46.42421907482041L205.3238,46.19639787269592L209.99025,45.95614578273196L214.65670000000003,45.73408312041503L219.32315000000003,45.50397821804878L223.98960000000002,45.2047753032178L228.65605000000002,44.89428091220313L233.32250000000002,44.70789091971818L237.98895000000002,44.49288796117993L242.65540000000001,44.11072078762563L247.32185,43.81206829679392L251.98830000000004,43.53711706141954" style="fill: none;" fill="none"></path></g><g><path stroke="rgb(204, 51, 17)" stroke-width="2px" d="M23.332250000000002,-36.97589724297525L27.998700000000003,0.8448521003231247L32.665150000000004,19.210933738459378L37.3316,31.027680309998352L41.99805,39.41496391006918L46.664500000000004,45.90417540566588L51.33095,51.24191732440804L55.997400000000006,55.58961680598786L60.663850000000004,59.119566960003176L65.33030000000001,62.05159160750766L69.99675,64.65105949891753L74.6632,66.82038596285581L79.32965,68.807854360084L83.9961,70.51094497881665L88.66255000000001,72.03100978753929L93.32900000000001,73.44707190228338L97.99545,74.70696244804655L102.6619,75.9822118130366L107.32835000000001,77.06965875652527L111.99480000000001,78.11478976660145L116.66125000000001,79.05699950680817L121.32770000000001,79.8888269645115L125.99415000000002,80.83946880535535L130.66060000000002,81.46224435111509L135.32705,82.10143749931375L139.9935,82.73764702165164L144.65995000000004,83.44794973813048L149.3264,84.10415429287634L153.99285000000003,84.53559973734163L158.6593,84.98200598425849L163.32575000000003,85.59336009610578L167.9922,86.11221646721405L172.65865000000002,86.49588263692954L177.32510000000002,87.06467233251212L181.99155000000002,87.53394830523328L186.65800000000002,87.92042694308988L191.32445,88.25877819636544L195.9909,88.67416755415832L200.65735,88.97633509545314L205.3238,89.33553970125045L209.99025,89.67192487078422L214.65670000000003,89.91520475676272L219.32315000000003,90.11891454746532L223.98960000000002,90.37488197435647L228.65605000000002,90.67893202065355L233.32250000000002,90.87088879742703L237.98895000000002,91.22827143967108L242.65540000000001,91.51390763902803L247.32185,91.75209542088436L251.98830000000004,91.82831448158043" style="fill: none;" fill="none"></path></g><g><path stroke="rgb(0, 119, 187)" stroke-width="2px" d="M23.332250000000002,21.553435790348058L27.998700000000003,30.543217765796186L32.665150000000004,36.36418655502333L37.3316,40.44097042290158L41.99805,43.46384378522672L46.664500000000004,45.64991678384771L51.33095,47.29666543008148L55.997400000000006,48.46150174058208L60.663850000000004,49.30769719987297L65.33030000000001,49.940621338492114L69.99675,50.28905014156997L74.6632,50.483402749625526L79.32965,50.56900103100432L83.9961,50.60752655274318L88.66255000000001,50.54367393819906L93.32900000000001,50.34201859298623L97.99545,50.128872247560054L102.6619,49.95361934401386L107.32835000000001,49.65369709052938L111.99480000000001,49.34715749885285L116.66125000000001,49.05754472839373L121.32770000000001,48.70936506760406L125.99415000000002,48.380057271194254L130.66060000000002,48.02315400840961L135.32705,47.642347595738556L139.9935,47.18445399246197L144.65995000000004,46.75615716359952L149.3264,46.240064345128374L153.99285000000003,45.884561625575316L158.6593,45.510531692170744L163.32575000000003,45.076402216222476L167.9922,44.66367479986519L172.65865000000002,44.20442571369718L177.32510000000002,43.85738109919379L181.99155000000002,43.41452472044764L186.65800000000002,43.05050078818204L191.32445,42.55674004351817L195.9909,42.135804127029736L200.65735,41.79348320369994L205.3238,41.33628742800797L209.99025,40.84906303560902L214.65670000000003,40.393780678550065L219.32315000000003,40.004516476203854L223.98960000000002,39.55782187642576L228.65605000000002,39.036868869352574L233.32250000000002,38.591898593302794L237.98895000000002,38.19784784305302L242.65540000000001,37.79262631548574L247.32185,37.42567536654177L251.98830000000004,36.990879235963305" style="fill: none;" fill="none"></path></g><g><path stroke="rgb(255, 112, 67)" stroke-width="2px" d="M23.332250000000002,-28.780983496856706L27.998700000000003,8.981059112186733L32.665150000000004,27.774151099195535L37.3316,39.86025509142978L41.99805,48.47509107695646L46.664500000000004,55.337622552070755L51.33095,60.70178478560156L55.997400000000006,65.33970220079094L60.663850000000004,69.1907919042946L65.33030000000001,72.43677945874926L69.99675,75.24572706406867L74.6632,77.77211646084812L79.32965,79.9176869390243L83.9961,81.90400169529674L88.66255000000001,83.59174247396788L93.32900000000001,85.24606962037325L97.99545,86.78923168764511L102.6619,88.16428164175541L107.32835000000001,89.43036093284455L111.99480000000001,90.65371446368147L116.66125000000001,91.7062548184864L121.32770000000001,92.81779990339658L125.99415000000002,93.84825399019184L130.66060000000002,94.7746504324855L135.32705,95.6312260774457L139.9935,96.52241920150156L144.65995000000004,97.31445843474638L149.3264,97.94405732013006L153.99285000000003,98.61881556609737L158.6593,99.24672788058498L163.32575000000003,99.89038756457568L167.9922,100.56978654920114L172.65865000000002,101.10618342537622L177.32510000000002,101.6375612182999L181.99155000000002,102.10920839869578L186.65800000000002,102.66430102541071L191.32445,103.16571907862327L195.9909,103.56311258307137L200.65735,104.02219795261524L205.3238,104.42718325567681L209.99025,104.85451596986735L214.65670000000003,105.24362384853423L219.32315000000003,105.67462751999938L223.98960000000002,105.97338422728376L228.65605000000002,106.29834234553374L233.32250000000002,106.61596827516748L237.98895000000002,106.97786830420056L242.65540000000001,107.22456246126227L247.32185,107.52101164610626L251.98830000000004,107.76455419387203" style="fill: none;" fill="none"></path></g></g></g></g><g opacity="0.2"><g><g><g><path stroke="rgb(51, 187, 238)" stroke-width="2px" d="M23.332250000000002,19.803261664259438L27.998700000000003,34.32495520602465L32.665150000000004,40.75747342865467L37.3316,44.03815479319096L41.99805,46.40298458122015L46.664500000000004,47.952895409810544L51.33095,49.03100937627554L55.997400000000006,49.62323792527914L60.663850000000004,50.260999666678906L65.33030000000001,50.75210463927984L69.99675,50.89888871430159L74.6632,51.077276559162144L79.32965,51.3823659223795L83.9961,51.06734667377472L88.66255000000001,51.16739875613451L93.32900000000001,50.90484028022289L97.99545,50.92490161918402L102.6619,50.546080735194685L107.32835000000001,50.568147147166734L111.99480000000001,50.497714979338646L116.66125000000001,50.34577500228882L121.32770000000001,50.06122437636853L125.99415000000002,49.772419600832464L130.66060000000002,49.86215987913609L135.32705,49.81936377053261L139.9935,49.300919786560534L144.65995000000004,49.22562876455784L149.3264,48.76800532858372L153.99285000000003,48.720530716288096L158.6593,48.283297493684294L163.32575000000003,48.09923391305208L167.9922,47.3313333852768L172.65865000000002,47.57222858558893L177.32510000000002,47.10080303328038L181.99155000000002,47.32860691033602L186.65800000000002,46.70374553285838L191.32445,46.659008004355435L195.9909,46.11394641094208L200.65735,46.130719005811216L205.3238,45.85466607027054L209.99025,45.595767648267746L214.65670000000003,45.400989127206806L219.32315000000003,45.15882086466551L223.98960000000002,44.75597093110085L228.65605000000002,44.4285393257618L233.32250000000002,44.428305931019786L237.98895000000002,44.17038352339268L242.65540000000001,43.53747002731562L247.32185,43.364089560556415L251.98830000000004,43.12469020836354" style="fill: none;" fill="none"></path></g><g><path stroke="rgb(204, 51, 17)" stroke-width="2px" d="M23.332250000000002,-36.97589724297525L27.998700000000003,23.53730170630217L32.665150000000004,36.84237211107016L37.3316,44.92417427812815L41.99805,50.36540137832165L46.664500000000004,54.88109102021456L51.33095,58.874973672080046L55.997400000000006,61.92860438804627L60.663850000000004,64.32555777965784L65.33030000000001,66.40530649917126L69.99675,68.52668435357809L74.6632,70.06257027994394L79.32965,71.7825675267756L83.9961,73.06224437509775L88.66255000000001,74.3093202215016L93.32900000000001,75.57016635768414L97.99545,76.59626512323618L102.6619,77.89476207484603L107.32835000000001,78.70066351016165L111.99480000000001,79.68239075260162L116.66125000000001,80.4702624440968L121.32770000000001,81.13654077942968L125.99415000000002,82.26541279785633L130.66060000000002,82.39640029238463L135.32705,83.06022267850041L139.9935,83.69195859201551L144.65995000000004,84.51340199537873L149.3264,85.08846011756658L153.99285000000003,85.18276750661731L158.6593,85.65161510791182L163.32575000000003,86.51039106114507L167.9922,86.89050092064143L172.65865000000002,87.07138184570074L177.32510000000002,87.91785683514476L181.99155000000002,88.23786224414707L186.65800000000002,88.50014488990902L191.32445,88.76630507104397L195.9909,89.29725158699155L200.65735,89.42958640571237L205.3238,89.87434660874605L209.99025,90.17650262441039L214.65670000000003,90.28012458543778L219.32315000000003,90.42447923337221L223.98960000000002,90.7588331145823L228.65605000000002,91.13500709002018L233.32250000000002,91.15882396255732L237.98895000000002,91.76434540300369L242.65540000000001,91.94236193804741L247.32185,92.10937709366084L251.98830000000004,91.94264307262301" style="fill: none;" fill="none"></path></g><g><path stroke="rgb(0, 119, 187)" stroke-width="2px" d="M23.332250000000002,21.553435790348058L27.998700000000003,35.93708695106507L32.665150000000004,41.95231659268141L37.3316,45.23526825152636L41.99805,47.41050724707842L46.664500000000004,48.67404272722006L51.33095,49.651542342174054L55.997400000000006,50.159844263720515L60.663850000000004,50.555671137321L65.33030000000001,50.88043992083073L69.99675,50.80853312258721L74.6632,50.77387400339842L79.32965,50.697118959832196L83.9961,50.66523935984373L88.66255000000001,50.44797007273436L93.32900000000001,50.039677798140055L97.99545,49.809242925810814L102.6619,49.6907844853878L107.32835000000001,49.20385940043926L111.99480000000001,48.88737613027096L116.66125000000001,48.62314145575762L121.32770000000001,48.187107033419615L125.99415000000002,47.88610207818747L130.66060000000002,47.48780334209204L135.32705,47.07114068334103L139.9935,46.49761554025412L144.65995000000004,46.113713016200066L149.3264,45.46592590974569L153.99285000000003,45.35130787371397L158.6593,44.94948699878454L163.32575000000003,44.42520814626217L167.9922,44.0445837574482L172.65865000000002,43.515552139270305L177.32510000000002,43.336814202296736L181.99155000000002,42.75024017136097L186.65800000000002,42.5044648991704L191.32445,41.816098934161666L195.9909,41.504400256204605L200.65735,41.28000182061196L205.3238,40.650493765997886L209.99025,40.11822644798756L214.65670000000003,39.71085714350939L219.32315000000003,39.42062017296553L223.98960000000002,38.88777997695208L228.65605000000002,38.255439358878135L233.32250000000002,37.92444317929745L237.98895000000002,37.60677171771527L242.65540000000001,37.184794024157526L247.32185,36.875248943138125L251.98830000000004,36.338685040104394" style="fill: none;" fill="none"></path></g><g><path stroke="rgb(255, 112, 67)" stroke-width="2px" d="M23.332250000000002,-28.780983496856706L27.998700000000003,31.638284677612784L32.665150000000004,45.81551940672398L37.3316,54.07351338629723L41.99805,59.722620939660075L46.664500000000004,64.83097409348488L51.33095,68.37262260614634L55.997400000000006,72.10183031614423L60.663850000000004,74.87040118129849L65.33030000000001,77.25669267674088L69.99675,79.43367152400613L74.6632,81.54795205648541L79.32965,83.12903699641228L83.9961,84.87958243231773L88.66255000000001,86.12136976604462L93.32900000000001,87.72639358030558L97.99545,89.10332177408338L102.6619,90.22650744788646L107.32835000000001,91.32928699504137L111.99480000000001,92.48863294057846L116.66125000000001,93.28500762687922L121.32770000000001,94.4850809548974L125.99415000000002,95.39391477586626L130.66060000000002,96.16423412187696L135.32705,96.91608345671297L139.9935,97.85920508705378L144.65995000000004,98.50251525800228L149.3264,98.88845468162299L153.99285000000003,99.63095231350064L158.6593,100.18859600527882L163.32575000000003,100.85587687711715L167.9922,101.58888489096165L172.65865000000002,101.91077867560386L177.32510000000002,102.4346278696239L181.99155000000002,102.81667914901972L186.65800000000002,103.4969399511695L191.32445,103.91784615068435L195.9909,104.15920283605456L200.65735,104.71082600437403L205.3238,105.03466120891571L209.99025,105.49551504029631L214.65670000000003,105.82728566606642L219.32315000000003,106.32113302688599L223.98960000000002,106.42151928808093L228.65605000000002,106.78577952282428L233.32250000000002,107.09240716956855L237.98895000000002,107.52071834771633L242.65540000000001,107.594603696841L247.32185,107.96568542336226L251.98830000000004,108.12986801551581" style="fill: none;" fill="none"></path></g></g></g></g></g></g><g transform="translate(50, 177)" clip-path="url(#clip_1)"><clipPath id="clip_1"><rect width="279" height="21"></rect></clipPath><g><g><line x1="0" y1="0" x2="0" y2="5" style="visibility: inherit;" fill="rgb(0, 0, 0)" stroke="rgb(204, 204, 204)" stroke-width="1px"></line><line x1="23.332250000000002" y1="0" x2="23.332250000000002" y2="5" style="visibility: inherit;" fill="rgb(0, 0, 0)" stroke="rgb(204, 204, 204)" stroke-width="1px"></line><line x1="46.664500000000004" y1="0" x2="46.664500000000004" y2="5" style="visibility: inherit;" fill="rgb(0, 0, 0)" stroke="rgb(204, 204, 204)" stroke-width="1px"></line><line x1="69.99675" y1="0" x2="69.99675" y2="5" style="visibility: inherit;" fill="rgb(0, 0, 0)" stroke="rgb(204, 204, 204)" stroke-width="1px"></line><line x1="93.32900000000001" y1="0" x2="93.32900000000001" y2="5" style="visibility: inherit;" fill="rgb(0, 0, 0)" stroke="rgb(204, 204, 204)" stroke-width="1px"></line><line x1="116.66125000000001" y1="0" x2="116.66125000000001" y2="5" style="visibility: inherit;" fill="rgb(0, 0, 0)" stroke="rgb(204, 204, 204)" stroke-width="1px"></line><line x1="139.9935" y1="0" x2="139.9935" y2="5" style="visibility: inherit;" fill="rgb(0, 0, 0)" stroke="rgb(204, 204, 204)" stroke-width="1px"></line><line x1="163.32575000000003" y1="0" x2="163.32575000000003" y2="5" style="visibility: inherit;" fill="rgb(0, 0, 0)" stroke="rgb(204, 204, 204)" stroke-width="1px"></line><line x1="186.65800000000002" y1="0" x2="186.65800000000002" y2="5" style="visibility: inherit;" fill="rgb(0, 0, 0)" stroke="rgb(204, 204, 204)" stroke-width="1px"></line><line x1="209.99025" y1="0" x2="209.99025" y2="5" style="visibility: inherit;" fill="rgb(0, 0, 0)" stroke="rgb(204, 204, 204)" stroke-width="1px"></line><line x1="233.32250000000002" y1="0" x2="233.32250000000002" y2="5" style="visibility: inherit;" fill="rgb(0, 0, 0)" stroke="rgb(204, 204, 204)" stroke-width="1px"></line><line x1="256.65475000000004" y1="0" x2="256.65475000000004" y2="5" style="visibility: inherit;" fill="rgb(0, 0, 0)" stroke="rgb(204, 204, 204)" stroke-width="1px"></line><line x1="279.987" y1="0" x2="279.987" y2="5" style="visibility: inherit;" fill="rgb(0, 0, 0)" stroke="rgb(204, 204, 204)" stroke-width="1px"></line></g><g transform="translate(0, 8)"><text x="0" y="0" dx="0em" dy="0.95em" style="text-anchor: middle; visibility: hidden; font-family: Roboto, sans-serif; font-size: 12px; font-weight: 200;" fill="rgb(50, 49, 63)" stroke="none" stroke-width="1px">-5</text><text x="23.332250000000002" y="0" dx="0em" dy="0.95em" style="text-anchor: middle; visibility: inherit; font-family: Roboto, sans-serif; font-size: 12px; font-weight: 200;" fill="rgb(50, 49, 63)" stroke="none" stroke-width="1px">0</text><text x="46.664500000000004" y="0" dx="0em" dy="0.95em" style="text-anchor: middle; visibility: inherit; font-family: Roboto, sans-serif; font-size: 12px; font-weight: 200;" fill="rgb(50, 49, 63)" stroke="none" stroke-width="1px">5</text><text x="69.99675" y="0" dx="0em" dy="0.95em" style="text-anchor: middle; visibility: inherit; font-family: Roboto, sans-serif; font-size: 12px; font-weight: 200;" fill="rgb(50, 49, 63)" stroke="none" stroke-width="1px">10</text><text x="93.32900000000001" y="0" dx="0em" dy="0.95em" style="text-anchor: middle; visibility: inherit; font-family: Roboto, sans-serif; font-size: 12px; font-weight: 200;" fill="rgb(50, 49, 63)" stroke="none" stroke-width="1px">15</text><text x="116.66125000000001" y="0" dx="0em" dy="0.95em" style="text-anchor: middle; visibility: inherit; font-family: Roboto, sans-serif; font-size: 12px; font-weight: 200;" fill="rgb(50, 49, 63)" stroke="none" stroke-width="1px">20</text><text x="139.9935" y="0" dx="0em" dy="0.95em" style="text-anchor: middle; visibility: inherit; font-family: Roboto, sans-serif; font-size: 12px; font-weight: 200;" fill="rgb(50, 49, 63)" stroke="none" stroke-width="1px">25</text><text x="163.32575000000003" y="0" dx="0em" dy="0.95em" style="text-anchor: middle; visibility: inherit; font-family: Roboto, sans-serif; font-size: 12px; font-weight: 200;" fill="rgb(50, 49, 63)" stroke="none" stroke-width="1px">30</text><text x="186.65800000000002" y="0" dx="0em" dy="0.95em" style="text-anchor: middle; visibility: inherit; font-family: Roboto, sans-serif; font-size: 12px; font-weight: 200;" fill="rgb(50, 49, 63)" stroke="none" stroke-width="1px">35</text><text x="209.99025" y="0" dx="0em" dy="0.95em" style="text-anchor: middle; visibility: inherit; font-family: Roboto, sans-serif; font-size: 12px; font-weight: 200;" fill="rgb(50, 49, 63)" stroke="none" stroke-width="1px">40</text><text x="233.32250000000002" y="0" dx="0em" dy="0.95em" style="text-anchor: middle; visibility: inherit; font-family: Roboto, sans-serif; font-size: 12px; font-weight: 200;" fill="rgb(50, 49, 63)" stroke="none" stroke-width="1px">45</text><text x="256.65475000000004" y="0" dx="0em" dy="0.95em" style="text-anchor: middle; visibility: inherit; font-family: Roboto, sans-serif; font-size: 12px; font-weight: 200;" fill="rgb(50, 49, 63)" stroke="none" stroke-width="1px">50</text><text x="279.987" y="0" dx="0em" dy="0.95em" style="text-anchor: middle; visibility: hidden; font-family: Roboto, sans-serif; font-size: 12px; font-weight: 200;" fill="rgb(50, 49, 63)" stroke="none" stroke-width="1px">55</text></g><line x1="0" y1="0" x2="279.987" y2="0" fill="rgb(0, 0, 0)" stroke="rgb(204, 204, 204)" stroke-width="1px"></line></g></g></g></g></svg>