<svg viewBox="0 0 329.98699951171875 199.9865264892578" xmlns="http://www.w3.org/2000/svg"><g><g><g><g><g><line x1="50" y1="155.73862500000004" x2="45" y2="155.73862500000004" style="visibility: inherit;" fill="rgb(0, 0, 0)" stroke="rgb(204, 204, 204)" stroke-width="1px"></line><line x1="50" y1="127.92815625" x2="45" y2="127.92815625" style="visibility: inherit;" fill="rgb(0, 0, 0)" stroke="rgb(204, 204, 204)" stroke-width="1px"></line><line x1="50" y1="100.11768750000003" x2="45" y2="100.11768750000003" style="visibility: inherit;" fill="rgb(0, 0, 0)" stroke="rgb(204, 204, 204)" stroke-width="1px"></line><line x1="50" y1="72.30721875000002" x2="45" y2="72.30721875000002" style="visibility: inherit;" fill="rgb(0, 0, 0)" stroke="rgb(204, 204, 204)" stroke-width="1px"></line><line x1="50" y1="44.49674999999998" x2="45" y2="44.49674999999998" style="visibility: inherit;" fill="rgb(0, 0, 0)" stroke="rgb(204, 204, 204)" stroke-width="1px"></line><line x1="50" y1="16.686281250000018" x2="45" y2="16.686281250000018" style="visibility: inherit;" fill="rgb(0, 0, 0)" stroke="rgb(204, 204, 204)" stroke-width="1px"></line></g><g transform="translate(40, 0)"><text x="0" y="155.73862500000004" dx="0em" dy="0.3em" style="text-anchor: end; visibility: inherit; font-family: Roboto, sans-serif; font-size: 12px; font-weight: 200;" fill="rgb(50, 49, 63)" stroke="none" stroke-width="1px">0.6</text><text x="0" y="127.92815625" dx="0em" dy="0.3em" style="text-anchor: end; visibility: inherit; font-family: Roboto, sans-serif; font-size: 12px; font-weight: 200;" fill="rgb(50, 49, 63)" stroke="none" stroke-width="1px">0.65</text><text x="0" y="100.11768750000003" dx="0em" dy="0.3em" style="text-anchor: end; visibility: inherit; font-family: Roboto, sans-serif; font-size: 12px; font-weight: 200;" fill="rgb(50, 49, 63)" stroke="none" stroke-width="1px">0.7</text><text x="0" y="72.30721875000002" dx="0em" dy="0.3em" style="text-anchor: end; visibility: inherit; font-family: Roboto, sans-serif; font-size: 12px; font-weight: 200;" fill="rgb(50, 49, 63)" stroke="none" stroke-width="1px">0.75</text><text x="0" y="44.49674999999998" dx="0em" dy="0.3em" style="text-anchor: end; visibility: inherit; font-family: Roboto, sans-serif; font-size: 12px; font-weight: 200;" fill="rgb(50, 49, 63)" stroke="none" stroke-width="1px">0.8</text><text x="0" y="16.686281250000018" dx="0em" dy="0.3em" style="text-anchor: end; visibility: inherit; font-family: Roboto, sans-serif; font-size: 12px; font-weight: 200;" fill="rgb(50, 49, 63)" stroke="none" stroke-width="1px">0.85</text></g><line x1="50" y1="0" x2="50" y2="177.987" fill="rgb(0, 0, 0)" stroke="rgb(204, 204, 204)" stroke-width="1px"></line></g></g><g transform="translate(50, 0)" clip-path="url(#clip_0)"><clipPath id="clip_0"><rect width="279" height="177"></rect></clipPath><g><g><g><line x1="0" y1="0" x2="0" y2="177.987" fill="rgb(0, 0, 0)" stroke="rgb(60, 60, 60)" stroke-width="1px" opacity="0.25"></line><line x1="23.332250000000002" y1="0" x2="23.332250000000002" y2="177.987" fill="rgb(0, 0, 0)" stroke="rgb(60, 60, 60)" stroke-width="1px" opacity="0.25"></line><line x1="46.664500000000004" y1="0" x2="46.664500000000004" y2="177.987" fill="rgb(0, 0, 0)" stroke="rgb(60, 60, 60)" stroke-width="1px" opacity="0.25"></line><line x1="69.99675" y1="0" x2="69.99675" y2="177.987" fill="rgb(0, 0, 0)" stroke="rgb(60, 60, 60)" stroke-width="1px" opacity="0.25"></line><line x1="93.32900000000001" y1="0" x2="93.32900000000001" y2="177.987" fill="rgb(0, 0, 0)" stroke="rgb(60, 60, 60)" stroke-width="1px" opacity="0.25"></line><line x1="116.66125000000001" y1="0" x2="116.66125000000001" y2="177.987" fill="rgb(0, 0, 0)" stroke="rgb(60, 60, 60)" stroke-width="1px" opacity="0.25"></line><line x1="139.9935" y1="0" x2="139.9935" y2="177.987" fill="rgb(0, 0, 0)" stroke="rgb(60, 60, 60)" stroke-width="1px" opacity="0.25"></line><line x1="163.32575000000003" y1="0" x2="163.32575000000003" y2="177.987" fill="rgb(0, 0, 0)" stroke="rgb(60, 60, 60)" stroke-width="1px" opacity="0.25"></line><line x1="186.65800000000002" y1="0" x2="186.65800000000002" y2="177.987" fill="rgb(0, 0, 0)" stroke="rgb(60, 60, 60)" stroke-width="1px" opacity="0.25"></line><line x1="209.99025" y1="0" x2="209.99025" y2="177.987" fill="rgb(0, 0, 0)" stroke="rgb(60, 60, 60)" stroke-width="1px" opacity="0.25"></line><line x1="233.32250000000002" y1="0" x2="233.32250000000002" y2="177.987" fill="rgb(0, 0, 0)" stroke="rgb(60, 60, 60)" stroke-width="1px" opacity="0.25"></line><line x1="256.65475000000004" y1="0" x2="256.65475000000004" y2="177.987" fill="rgb(0, 0, 0)" stroke="rgb(60, 60, 60)" stroke-width="1px" opacity="0.25"></line><line x1="279.987" y1="0" x2="279.987" y2="177.987" fill="rgb(0, 0, 0)" stroke="rgb(60, 60, 60)" stroke-width="1px" opacity="0.25"></line></g><g><line x1="0" y1="155.73862500000004" x2="279.987" y2="155.73862500000004" fill="rgb(0, 0, 0)" stroke="rgb(60, 60, 60)" stroke-width="1px" opacity="0.25"></line><line x1="0" y1="127.92815625" x2="279.987" y2="127.92815625" fill="rgb(0, 0, 0)" stroke="rgb(60, 60, 60)" stroke-width="1px" opacity="0.25"></line><line x1="0" y1="100.11768750000003" x2="279.987" y2="100.11768750000003" fill="rgb(0, 0, 0)" stroke="rgb(60, 60, 60)" stroke-width="1px" opacity="0.25"></line><line x1="0" y1="72.30721875000002" x2="279.987" y2="72.30721875000002" fill="rgb(0, 0, 0)" stroke="rgb(60, 60, 60)" stroke-width="1px" opacity="0.25"></line><line x1="0" y1="44.49674999999998" x2="279.987" y2="44.49674999999998" fill="rgb(0, 0, 0)" stroke="rgb(60, 60, 60)" stroke-width="1px" opacity="0.25"></line><line x1="0" y1="16.686281250000018" x2="279.987" y2="16.686281250000018" fill="rgb(0, 0, 0)" stroke="rgb(60, 60, 60)" stroke-width="1px" opacity="0.25"></line></g></g></g><g><g><line x1="0" y1="489.46425000000005" x2="279.987" y2="489.46425000000005" fill="rgb(0, 0, 0)" stroke="rgb(153, 153, 153)" stroke-width="1.5px"></line></g></g><g><g><line x1="23.332250000000002" y1="0" x2="23.332250000000002" y2="177.987" fill="rgb(0, 0, 0)" stroke="rgb(153, 153, 153)" stroke-width="1.5px"></line></g></g><g><g><g><g><g><path stroke="rgb(51, 187, 238)" stroke-width="2px" d="M23.332250000000002,158.0922186877504L27.998700000000003,146.86500746651274L32.665150000000004,138.96716165152225L37.3316,133.30947502694892L41.99805,128.90520142730998L46.664500000000004,125.66963017140112L51.33095,123.57120911178546L55.997400000000006,122.16396815261295L60.663850000000004,120.6905137920409L65.33030000000001,119.43979205707305L69.99675,118.63534946812241L74.6632,117.84593557776259L79.32965,116.69796897516079L83.9961,116.49443836138246L88.66255000000001,115.83692723535012L93.32900000000001,115.80198862494318L97.99545,115.5243734576618L102.6619,115.59982040058426L107.32835000000001,115.30044736814244L111.99480000000001,114.95952173319726L116.66125000000001,114.84296342560326L121.32770000000001,114.8830187973695L125.99415000000002,115.17833542981263L130.66060000000002,114.96691982985604L135.32705,114.70809661805207L139.9935,114.76543143901318L144.65995000000004,114.72651176619274L149.3264,114.87180105372428L153.99285000000003,115.12761559344698L158.6593,115.26643751594892L163.32575000000003,115.58435870197714L167.9922,116.383661702704L172.65865000000002,116.5406415215152L177.32510000000002,116.53217550177263L181.99155000000002,116.4831089370958L186.65800000000002,116.66629691542163L191.32445,116.63690221370723L195.9909,117.00053427077825L200.65735,116.8227778889421L205.3238,116.94341871256165L209.99025,116.89116245765689L214.65670000000003,116.77915490805903L219.32315000000003,117.18852652838305L223.98960000000002,117.41949602379908L228.65605000000002,117.93199996768203L233.32250000000002,117.65293891185738L237.98895000000002,117.72746366831177L242.65540000000001,118.26342140986935L247.32185,118.3210478192809L251.98830000000004,118.50959788933207" style="fill: none;" fill="none"></path></g><g><path stroke="rgb(204, 51, 17)" stroke-width="2px" d="M27.998700000000003,178.5999168048073L32.665150000000004,156.8332192766387L37.3316,141.6735065485249L41.99805,131.0525856342895L46.664500000000004,122.06695204563808L51.33095,114.8524041749102L55.997400000000006,108.55101836888889L60.663850000000004,103.81755190670815L65.33030000000001,99.5635840255972L69.99675,95.34012632825535L74.6632,92.44035747497081L79.32965,89.34246875697072L83.9961,87.5430492751266L88.66255000000001,85.43729181867705L93.32900000000001,83.38388868548417L97.99545,81.30189354996111L102.6619,79.54275684001544L107.32835000000001,78.4118230096152L111.99480000000001,76.89883706181345L116.66125000000001,75.8745666248284L121.32770000000001,74.4035283331558L125.99415000000002,72.81872555770846L130.66060000000002,71.89933381971974L135.32705,70.96669682657158L139.9935,70.07963377164342L144.65995000000004,68.99004704053479L149.3264,68.298514918522L153.99285000000003,67.735602378432L158.6593,66.95701730962192L163.32575000000003,66.14978632435773L167.9922,65.52061043950347L172.65865000000002,64.92583564315392L177.32510000000002,64.03681749542217L181.99155000000002,63.399492916843506L186.65800000000002,62.90058645940889L191.32445,62.51308302832679L195.9909,62.15147124299259L200.65735,61.89986627108942L205.3238,61.1285904552556L209.99025,60.52097435453784L214.65670000000003,60.4429497846362L219.32315000000003,60.024573265541825L223.98960000000002,59.89950094848148L228.65605000000002,59.82131468588059L233.32250000000002,59.635851322376766L237.98895000000002,58.88536345457254L242.65540000000001,58.49804753105787L247.32185,58.24990383186871L251.98830000000004,58.145110653107075" style="fill: none;" fill="none"></path></g><g><path stroke="rgb(0, 119, 187)" stroke-width="2px" d="M23.332250000000002,156.11257376874985L27.998700000000003,144.20944192613663L32.665150000000004,136.54422504357552L37.3316,131.19977050768154L41.99805,127.20172416632535L46.664500000000004,124.08100570235209L51.33095,121.54257747367363L55.997400000000006,119.76748381274297L60.663850000000004,118.61800436561147L65.33030000000001,117.66284370611012L69.99675,117.11552398742032L74.6632,116.85455005252393L79.32965,116.69098678117126L83.9961,116.35817361604228L88.66255000000001,116.23934444817225L93.32900000000001,116.07273528245574L97.99545,116.09746171953583L102.6619,116.12696313035121L107.32835000000001,116.25465603394308L111.99480000000001,116.40458990458698L116.66125000000001,116.58985608267177L121.32770000000001,116.73034705004378L125.99415000000002,116.89529488058682L130.66060000000002,117.21422507076412L135.32705,117.26627433499664L139.9935,117.62743965603055L144.65995000000004,118.09343346832044L149.3264,118.62232436235473L153.99285000000003,119.0862996004621L158.6593,119.22536385541196L163.32575000000003,119.20616173286567L167.9922,119.58324273734556L172.65865000000002,119.76549110543031L177.32510000000002,119.86017338252616L181.99155000000002,120.48155933325414L186.65800000000002,120.73707025458862L191.32445,120.95636386498892L195.9909,121.10994013708981L200.65735,121.26073959011153L205.3238,121.5345269618882L209.99025,121.750119705874L214.65670000000003,122.19475716999602L219.32315000000003,122.41753943502438L223.98960000000002,122.82983702839023L228.65605000000002,123.0478821088309L233.32250000000002,123.28136306037783L237.98895000000002,123.30413099023653L242.65540000000001,123.55975313808571L247.32185,123.80111359231823L251.98830000000004,123.85060933044689" style="fill: none;" fill="none"></path></g><g><path stroke="rgb(255, 112, 67)" stroke-width="2px" d="M23.332250000000002,210.09216937608275L27.998700000000003,166.92858423233685L32.665150000000004,143.52974604535103L37.3316,127.83808519588453L41.99805,116.21858118497526L46.664500000000004,106.9997086661108L51.33095,99.18913506876272L55.997400000000006,92.16308538504383L60.663850000000004,86.69094984326537L65.33030000000001,81.91303983212887L69.99675,77.56371581423855L74.6632,73.47790246075863L79.32965,70.43305865530067L83.9961,67.31036536001983L88.66255000000001,64.66333327736346L93.32900000000001,62.225490749364276L97.99545,59.85305734526888L102.6619,57.91654594913282L107.32835000000001,56.014739213256725L111.99480000000001,54.16837403492834L116.66125000000001,52.63234916986863L121.32770000000001,50.7944306939731L125.99415000000002,49.146939504201065L130.66060000000002,47.62315443556846L135.32705,46.64905392049741L139.9935,45.072719082619855L144.65995000000004,43.919092279196775L149.3264,42.70420523716108L153.99285000000003,41.47461506119862L158.6593,40.702223336431025L163.32575000000003,39.86722658449846L167.9922,38.566427195102705L172.65865000000002,37.830027409511494L177.32510000000002,37.02292477894801L181.99155000000002,36.4599455328869L186.65800000000002,35.558522944736346L191.32445,34.95783547265588L195.9909,34.26679812079526L200.65735,33.445976031860994L205.3238,32.597661886145936L209.99025,31.981616822523723L214.65670000000003,31.46399630045592L219.32315000000003,30.797603094222673L223.98960000000002,30.44500308374172L228.65605000000002,30.050811691848796L233.32250000000002,29.76076193778701L237.98895000000002,29.196273290812645L242.65540000000001,28.737925514163017L247.32185,28.37790016118781L251.98830000000004,28.098908152256676" style="fill: none;" fill="none"></path></g></g></g></g><g opacity="0.2"><g><g><g><path stroke="rgb(51, 187, 238)" stroke-width="2px" d="M23.332250000000002,158.0922186877504L27.998700000000003,140.12868073377015L32.665150000000004,131.38522966913135L37.3316,126.6560355564505L41.99805,123.15498181562127L46.664500000000004,121.19367031882705L51.33095,120.57043342179807L55.997400000000006,120.11219732462617L60.663850000000004,118.51745481397214L65.33030000000001,117.58261604475976L69.99675,117.43598181977124L74.6632,116.66611069775374L79.32965,114.97976738139243L83.9961,116.18954117837549L88.66255000000001,114.85143342594804L93.32900000000001,115.74960535074771L97.99545,115.10806818417461L102.6619,115.71297165899725L107.32835000000001,114.85143342594804L111.99480000000001,114.44816444273295L116.66125000000001,114.66813235654683L121.32770000000001,114.94310053697976L125.99415000000002,115.62130454796554L130.66060000000002,114.6497989343405L135.32705,114.31986363995077L139.9935,114.85143342594804L144.65995000000004,114.66813235654683L149.3264,115.08973476196827L153.99285000000003,115.51133716738971L158.6593,115.47467032297702L163.32575000000003,116.06124037559331L167.9922,117.58261604475976L172.65865000000002,116.7761112309918L177.32510000000002,116.51947647276522L181.99155000000002,116.40950909218938L186.65800000000002,116.94107887818666L191.32445,116.59281016159059L195.9909,117.5459823530093L200.65735,116.55614331717791L205.3238,117.12437994758787L209.99025,116.81277807540448L214.65670000000003,116.61114358379693L219.32315000000003,117.80258395857365L223.98960000000002,117.76595026682318L228.65605000000002,118.70075588337333L233.32250000000002,117.2343473281637L237.98895000000002,117.83925080298634L242.65540000000001,119.06735802217574L247.32185,118.4074874333963L251.98830000000004,118.79242299440504" style="fill: none;" fill="none"></path></g><g><path stroke="rgb(204, 51, 17)" stroke-width="2px" d="M23.332250000000002,220.89264367333803L27.998700000000003,153.22428068368885L32.665150000000004,135.93718964959683L37.3316,123.84568438026311L41.99805,117.18591128866376L46.664500000000004,109.63658596444131L51.33095,104.53548528700324L55.997400000000006,99.3635373704061L60.663850000000004,96.83660830351712L65.33030000000001,93.2469374965802L69.99675,89.0432462327108L74.6632,88.1064846090898L79.32965,84.70575082413109L83.9961,84.84744530244919L88.66255000000001,82.28113087284567L93.32900000000001,80.30523220467569L97.99545,78.17978187724205L102.6619,76.90449841971697L107.32835000000001,76.715594550401L111.99480000000001,74.62949643301965L116.66125000000001,74.33821714277568L121.32770000000001,72.19701930078865L125.99415000000002,70.44155268370362L130.66060000000002,70.52025710380825L135.32705,69.56774796563388L139.9935,68.74904297216983L144.65995000000004,67.35566973182561L149.3264,67.26121779716762L153.99285000000003,66.89123408681901L158.6593,65.78914013671877L163.32575000000003,64.93894011414798L167.9922,64.57684673740717L172.65865000000002,64.03367351963372L177.32510000000002,62.70329033750298L181.99155000000002,62.44350607636573L186.65800000000002,62.152226786121744L191.32445,61.93182788769903L195.9909,61.60905356834831L200.65735,61.52245881463589L205.3238,59.97167673408242L209.99025,59.60955020467939L214.65670000000003,60.32591292987766L219.32315000000003,59.39700848720224L223.98960000000002,59.71189247294517L228.65605000000002,59.704035291999595L233.32250000000002,59.357656277149935L237.98895000000002,57.759631652936356L242.65540000000001,57.91707364580782L247.32185,57.87768828309329L251.98830000000004,57.98792088496687" style="fill: none;" fill="none"></path></g><g><path stroke="rgb(0, 119, 187)" stroke-width="2px" d="M23.332250000000002,156.11257376874985L27.998700000000003,137.0675628205687L32.665150000000004,129.1856168363169L37.3316,124.91469197347017L41.99805,121.98187486305089L46.664500000000004,119.7639286080301L51.33095,117.91258449181171L55.997400000000006,117.17938021420689L60.663850000000004,116.92274545598032L65.33030000000001,116.24454144499452L69.99675,116.29950855895133L74.6632,116.46450935880841L79.32965,116.44617593660207L83.9961,115.85960588398578L88.66255000000001,116.06124037559331L93.32900000000001,115.82293903957309L97.99545,116.13454091175647L102.6619,116.17120775616915L107.32835000000001,116.44617593660207L111.99480000000001,116.62947700600327L116.66125000000001,116.86774518936129L121.32770000000001,116.94107887818666L125.99415000000002,117.14271336979421L130.66060000000002,117.69261657799782L135.32705,117.34434786140176L139.9935,118.16918609737607L144.65995000000004,118.79242299440504L149.3264,119.41565989143403L153.99285000000003,119.78226203023644L158.6593,119.43396016097816L163.32575000000003,119.1773585554138L167.9922,120.14886416903884L172.65865000000002,120.0388636358008L177.32510000000002,120.00219679138812L181.99155000000002,121.41363823264093L186.65800000000002,121.12033663000167L191.32445,121.28530427719654L195.9909,121.34030454381556L200.65735,121.4869387688041L205.3238,121.94520801863821L209.99025,122.07350882142039L214.65670000000003,122.86171336564423L219.32315000000003,122.75171283240618L223.98960000000002,123.44828341826053L228.65605000000002,123.37494972943516L233.32250000000002,123.63158448766174L237.98895000000002,123.33828288502248L242.65540000000001,123.94318635984511L247.32185,124.163154273659L251.98830000000004,123.92485293763878" style="fill: none;" fill="none"></path></g><g><path stroke="rgb(255, 112, 67)" stroke-width="2px" d="M23.332250000000002,210.09216937608275L27.998700000000003,141.03043314608934L32.665150000000004,121.06686138584466L37.3316,109.38469203691186L41.99805,101.0481567483321L46.664500000000004,94.24668917841466L51.33095,88.0198898553774L55.997400000000006,81.91903749610485L60.663850000000004,78.6206128267497L65.33030000000001,74.81840030233563L69.99675,71.07917783613505L74.6632,67.37141724637898L79.32965,65.87573489043119L83.9961,62.63244309834393L88.66255000000001,60.695896640226266L93.32900000000001,58.57044631279262L97.99545,56.29541117343308L102.6619,55.01227053496243L107.32835000000001,53.16231883055718L111.99480000000001,51.39899503252657L116.66125000000001,50.32839611153307L121.32770000000001,48.03761345762014L125.99415000000002,46.67573524638265L130.66060000000002,45.33749488330632L135.32705,45.187910071380436L139.9935,42.70822354815155L144.65995000000004,42.188655025877054L149.3264,40.88187653924525L153.99285000000003,39.630230929881336L158.6593,39.54363617616892L163.32575000000003,38.61473173349351L167.9922,36.615228369824585L172.65865000000002,36.72542781903594L177.32510000000002,35.8122708909139L181.99155000000002,35.615476687990125L186.65800000000002,34.20638908575475L191.32445,34.05680427382886L195.9909,33.230242099419236L200.65735,32.21474290303141L205.3238,31.325190670408308L209.99025,31.057549228325485L214.65670000000003,30.68756551797688L219.32315000000003,29.79801328535378L223.98960000000002,29.91610306817293L228.65605000000002,29.45952460411191L233.32250000000002,29.32568730673939L237.98895000000002,28.34954032040387L242.65540000000001,28.050403849214316L247.32185,27.83786213173717L251.98830000000004,27.68042013886571" style="fill: none;" fill="none"></path></g></g></g></g></g></g><g transform="translate(50, 177)" clip-path="url(#clip_1)"><clipPath id="clip_1"><rect width="279" height="21"></rect></clipPath><g><g><line x1="0" y1="0" x2="0" y2="5" style="visibility: inherit;" fill="rgb(0, 0, 0)" stroke="rgb(204, 204, 204)" stroke-width="1px"></line><line x1="23.332250000000002" y1="0" x2="23.332250000000002" y2="5" style="visibility: inherit;" fill="rgb(0, 0, 0)" stroke="rgb(204, 204, 204)" stroke-width="1px"></line><line x1="46.664500000000004" y1="0" x2="46.664500000000004" y2="5" style="visibility: inherit;" fill="rgb(0, 0, 0)" stroke="rgb(204, 204, 204)" stroke-width="1px"></line><line x1="69.99675" y1="0" x2="69.99675" y2="5" style="visibility: inherit;" fill="rgb(0, 0, 0)" stroke="rgb(204, 204, 204)" stroke-width="1px"></line><line x1="93.32900000000001" y1="0" x2="93.32900000000001" y2="5" style="visibility: inherit;" fill="rgb(0, 0, 0)" stroke="rgb(204, 204, 204)" stroke-width="1px"></line><line x1="116.66125000000001" y1="0" x2="116.66125000000001" y2="5" style="visibility: inherit;" fill="rgb(0, 0, 0)" stroke="rgb(204, 204, 204)" stroke-width="1px"></line><line x1="139.9935" y1="0" x2="139.9935" y2="5" style="visibility: inherit;" fill="rgb(0, 0, 0)" stroke="rgb(204, 204, 204)" stroke-width="1px"></line><line x1="163.32575000000003" y1="0" x2="163.32575000000003" y2="5" style="visibility: inherit;" fill="rgb(0, 0, 0)" stroke="rgb(204, 204, 204)" stroke-width="1px"></line><line x1="186.65800000000002" y1="0" x2="186.65800000000002" y2="5" style="visibility: inherit;" fill="rgb(0, 0, 0)" stroke="rgb(204, 204, 204)" stroke-width="1px"></line><line x1="209.99025" y1="0" x2="209.99025" y2="5" style="visibility: inherit;" fill="rgb(0, 0, 0)" stroke="rgb(204, 204, 204)" stroke-width="1px"></line><line x1="233.32250000000002" y1="0" x2="233.32250000000002" y2="5" style="visibility: inherit;" fill="rgb(0, 0, 0)" stroke="rgb(204, 204, 204)" stroke-width="1px"></line><line x1="256.65475000000004" y1="0" x2="256.65475000000004" y2="5" style="visibility: inherit;" fill="rgb(0, 0, 0)" stroke="rgb(204, 204, 204)" stroke-width="1px"></line><line x1="279.987" y1="0" x2="279.987" y2="5" style="visibility: inherit;" fill="rgb(0, 0, 0)" stroke="rgb(204, 204, 204)" stroke-width="1px"></line></g><g transform="translate(0, 8)"><text x="0" y="0" dx="0em" dy="0.95em" style="text-anchor: middle; visibility: hidden; font-family: Roboto, sans-serif; font-size: 12px; font-weight: 200;" fill="rgb(50, 49, 63)" stroke="none" stroke-width="1px">-5</text><text x="23.332250000000002" y="0" dx="0em" dy="0.95em" style="text-anchor: middle; visibility: inherit; font-family: Roboto, sans-serif; font-size: 12px; font-weight: 200;" fill="rgb(50, 49, 63)" stroke="none" stroke-width="1px">0</text><text x="46.664500000000004" y="0" dx="0em" dy="0.95em" style="text-anchor: middle; visibility: inherit; font-family: Roboto, sans-serif; font-size: 12px; font-weight: 200;" fill="rgb(50, 49, 63)" stroke="none" stroke-width="1px">5</text><text x="69.99675" y="0" dx="0em" dy="0.95em" style="text-anchor: middle; visibility: inherit; font-family: Roboto, sans-serif; font-size: 12px; font-weight: 200;" fill="rgb(50, 49, 63)" stroke="none" stroke-width="1px">10</text><text x="93.32900000000001" y="0" dx="0em" dy="0.95em" style="text-anchor: middle; visibility: inherit; font-family: Roboto, sans-serif; font-size: 12px; font-weight: 200;" fill="rgb(50, 49, 63)" stroke="none" stroke-width="1px">15</text><text x="116.66125000000001" y="0" dx="0em" dy="0.95em" style="text-anchor: middle; visibility: inherit; font-family: Roboto, sans-serif; font-size: 12px; font-weight: 200;" fill="rgb(50, 49, 63)" stroke="none" stroke-width="1px">20</text><text x="139.9935" y="0" dx="0em" dy="0.95em" style="text-anchor: middle; visibility: inherit; font-family: Roboto, sans-serif; font-size: 12px; font-weight: 200;" fill="rgb(50, 49, 63)" stroke="none" stroke-width="1px">25</text><text x="163.32575000000003" y="0" dx="0em" dy="0.95em" style="text-anchor: middle; visibility: inherit; font-family: Roboto, sans-serif; font-size: 12px; font-weight: 200;" fill="rgb(50, 49, 63)" stroke="none" stroke-width="1px">30</text><text x="186.65800000000002" y="0" dx="0em" dy="0.95em" style="text-anchor: middle; visibility: inherit; font-family: Roboto, sans-serif; font-size: 12px; font-weight: 200;" fill="rgb(50, 49, 63)" stroke="none" stroke-width="1px">35</text><text x="209.99025" y="0" dx="0em" dy="0.95em" style="text-anchor: middle; visibility: inherit; font-family: Roboto, sans-serif; font-size: 12px; font-weight: 200;" fill="rgb(50, 49, 63)" stroke="none" stroke-width="1px">40</text><text x="233.32250000000002" y="0" dx="0em" dy="0.95em" style="text-anchor: middle; visibility: inherit; font-family: Roboto, sans-serif; font-size: 12px; font-weight: 200;" fill="rgb(50, 49, 63)" stroke="none" stroke-width="1px">45</text><text x="256.65475000000004" y="0" dx="0em" dy="0.95em" style="text-anchor: middle; visibility: inherit; font-family: Roboto, sans-serif; font-size: 12px; font-weight: 200;" fill="rgb(50, 49, 63)" stroke="none" stroke-width="1px">50</text><text x="279.987" y="0" dx="0em" dy="0.95em" style="text-anchor: middle; visibility: hidden; font-family: Roboto, sans-serif; font-size: 12px; font-weight: 200;" fill="rgb(50, 49, 63)" stroke="none" stroke-width="1px">55</text></g><line x1="0" y1="0" x2="279.987" y2="0" fill="rgb(0, 0, 0)" stroke="rgb(204, 204, 204)" stroke-width="1px"></line></g></g></g></g></svg>