<svg viewBox="0 0 329.98699951171875 199.9865264892578" xmlns="http://www.w3.org/2000/svg"><g><g><g><g><g><line x1="50" y1="155.73862500000004" x2="45" y2="155.73862500000004" style="visibility: inherit;" fill="rgb(0, 0, 0)" stroke="rgb(204, 204, 204)" stroke-width="1px"></line><line x1="50" y1="127.92815625" x2="45" y2="127.92815625" style="visibility: inherit;" fill="rgb(0, 0, 0)" stroke="rgb(204, 204, 204)" stroke-width="1px"></line><line x1="50" y1="100.11768750000003" x2="45" y2="100.11768750000003" style="visibility: inherit;" fill="rgb(0, 0, 0)" stroke="rgb(204, 204, 204)" stroke-width="1px"></line><line x1="50" y1="72.30721875000002" x2="45" y2="72.30721875000002" style="visibility: inherit;" fill="rgb(0, 0, 0)" stroke="rgb(204, 204, 204)" stroke-width="1px"></line><line x1="50" y1="44.49674999999998" x2="45" y2="44.49674999999998" style="visibility: inherit;" fill="rgb(0, 0, 0)" stroke="rgb(204, 204, 204)" stroke-width="1px"></line><line x1="50" y1="16.686281250000018" x2="45" y2="16.686281250000018" style="visibility: inherit;" fill="rgb(0, 0, 0)" stroke="rgb(204, 204, 204)" stroke-width="1px"></line></g><g transform="translate(40, 0)"><text x="0" y="155.73862500000004" dx="0em" dy="0.3em" style="text-anchor: end; visibility: inherit; font-family: Roboto, sans-serif; font-size: 12px; font-weight: 200;" fill="rgb(50, 49, 63)" stroke="none" stroke-width="1px">0.6</text><text x="0" y="127.92815625" dx="0em" dy="0.3em" style="text-anchor: end; visibility: inherit; font-family: Roboto, sans-serif; font-size: 12px; font-weight: 200;" fill="rgb(50, 49, 63)" stroke="none" stroke-width="1px">0.65</text><text x="0" y="100.11768750000003" dx="0em" dy="0.3em" style="text-anchor: end; visibility: inherit; font-family: Roboto, sans-serif; font-size: 12px; font-weight: 200;" fill="rgb(50, 49, 63)" stroke="none" stroke-width="1px">0.7</text><text x="0" y="72.30721875000002" dx="0em" dy="0.3em" style="text-anchor: end; visibility: inherit; font-family: Roboto, sans-serif; font-size: 12px; font-weight: 200;" fill="rgb(50, 49, 63)" stroke="none" stroke-width="1px">0.75</text><text x="0" y="44.49674999999998" dx="0em" dy="0.3em" style="text-anchor: end; visibility: inherit; font-family: Roboto, sans-serif; font-size: 12px; font-weight: 200;" fill="rgb(50, 49, 63)" stroke="none" stroke-width="1px">0.8</text><text x="0" y="16.686281250000018" dx="0em" dy="0.3em" style="text-anchor: end; visibility: inherit; font-family: Roboto, sans-serif; font-size: 12px; font-weight: 200;" fill="rgb(50, 49, 63)" stroke="none" stroke-width="1px">0.85</text></g><line x1="50" y1="0" x2="50" y2="177.987" fill="rgb(0, 0, 0)" stroke="rgb(204, 204, 204)" stroke-width="1px"></line></g></g><g transform="translate(50, 0)" clip-path="url(#clip_0)"><clipPath id="clip_0"><rect width="279" height="177"></rect></clipPath><g><g><g><line x1="0" y1="0" x2="0" y2="177.987" fill="rgb(0, 0, 0)" stroke="rgb(60, 60, 60)" stroke-width="1px" opacity="0.25"></line><line x1="23.332250000000002" y1="0" x2="23.332250000000002" y2="177.987" fill="rgb(0, 0, 0)" stroke="rgb(60, 60, 60)" stroke-width="1px" opacity="0.25"></line><line x1="46.664500000000004" y1="0" x2="46.664500000000004" y2="177.987" fill="rgb(0, 0, 0)" stroke="rgb(60, 60, 60)" stroke-width="1px" opacity="0.25"></line><line x1="69.99675" y1="0" x2="69.99675" y2="177.987" fill="rgb(0, 0, 0)" stroke="rgb(60, 60, 60)" stroke-width="1px" opacity="0.25"></line><line x1="93.32900000000001" y1="0" x2="93.32900000000001" y2="177.987" fill="rgb(0, 0, 0)" stroke="rgb(60, 60, 60)" stroke-width="1px" opacity="0.25"></line><line x1="116.66125000000001" y1="0" x2="116.66125000000001" y2="177.987" fill="rgb(0, 0, 0)" stroke="rgb(60, 60, 60)" stroke-width="1px" opacity="0.25"></line><line x1="139.9935" y1="0" x2="139.9935" y2="177.987" fill="rgb(0, 0, 0)" stroke="rgb(60, 60, 60)" stroke-width="1px" opacity="0.25"></line><line x1="163.32575000000003" y1="0" x2="163.32575000000003" y2="177.987" fill="rgb(0, 0, 0)" stroke="rgb(60, 60, 60)" stroke-width="1px" opacity="0.25"></line><line x1="186.65800000000002" y1="0" x2="186.65800000000002" y2="177.987" fill="rgb(0, 0, 0)" stroke="rgb(60, 60, 60)" stroke-width="1px" opacity="0.25"></line><line x1="209.99025" y1="0" x2="209.99025" y2="177.987" fill="rgb(0, 0, 0)" stroke="rgb(60, 60, 60)" stroke-width="1px" opacity="0.25"></line><line x1="233.32250000000002" y1="0" x2="233.32250000000002" y2="177.987" fill="rgb(0, 0, 0)" stroke="rgb(60, 60, 60)" stroke-width="1px" opacity="0.25"></line><line x1="256.65475000000004" y1="0" x2="256.65475000000004" y2="177.987" fill="rgb(0, 0, 0)" stroke="rgb(60, 60, 60)" stroke-width="1px" opacity="0.25"></line><line x1="279.987" y1="0" x2="279.987" y2="177.987" fill="rgb(0, 0, 0)" stroke="rgb(60, 60, 60)" stroke-width="1px" opacity="0.25"></line></g><g><line x1="0" y1="155.73862500000004" x2="279.987" y2="155.73862500000004" fill="rgb(0, 0, 0)" stroke="rgb(60, 60, 60)" stroke-width="1px" opacity="0.25"></line><line x1="0" y1="127.92815625" x2="279.987" y2="127.92815625" fill="rgb(0, 0, 0)" stroke="rgb(60, 60, 60)" stroke-width="1px" opacity="0.25"></line><line x1="0" y1="100.11768750000003" x2="279.987" y2="100.11768750000003" fill="rgb(0, 0, 0)" stroke="rgb(60, 60, 60)" stroke-width="1px" opacity="0.25"></line><line x1="0" y1="72.30721875000002" x2="279.987" y2="72.30721875000002" fill="rgb(0, 0, 0)" stroke="rgb(60, 60, 60)" stroke-width="1px" opacity="0.25"></line><line x1="0" y1="44.49674999999998" x2="279.987" y2="44.49674999999998" fill="rgb(0, 0, 0)" stroke="rgb(60, 60, 60)" stroke-width="1px" opacity="0.25"></line><line x1="0" y1="16.686281250000018" x2="279.987" y2="16.686281250000018" fill="rgb(0, 0, 0)" stroke="rgb(60, 60, 60)" stroke-width="1px" opacity="0.25"></line></g></g></g><g><g><line x1="0" y1="489.46425000000005" x2="279.987" y2="489.46425000000005" fill="rgb(0, 0, 0)" stroke="rgb(153, 153, 153)" stroke-width="1.5px"></line></g></g><g><g><line x1="23.332250000000002" y1="0" x2="23.332250000000002" y2="177.987" fill="rgb(0, 0, 0)" stroke="rgb(153, 153, 153)" stroke-width="1.5px"></line></g></g><g><g><g><g><g><path stroke="rgb(51, 187, 238)" stroke-width="2px" d="M23.332250000000002,158.0922186877504L27.998700000000003,140.12868073377015L32.665150000000004,131.38522966913135L37.3316,126.6560355564505L41.99805,123.15498181562127L46.664500000000004,121.19367031882705L51.33095,120.57043342179807L55.997400000000006,120.11219732462617L60.663850000000004,118.51745481397214L65.33030000000001,117.58261604475976L69.99675,117.43598181977124L74.6632,116.66611069775374L79.32965,114.97976738139243L83.9961,116.18954117837549L88.66255000000001,114.85143342594804L93.32900000000001,115.74960535074771L97.99545,115.10806818417461L102.6619,115.71297165899725L107.32835000000001,114.85143342594804L111.99480000000001,114.44816444273295L116.66125000000001,114.66813235654683L121.32770000000001,114.94310053697976L125.99415000000002,115.62130454796554L130.66060000000002,114.6497989343405L135.32705,114.31986363995077L139.9935,114.85143342594804L144.65995000000004,114.66813235654683L149.3264,115.08973476196827L153.99285000000003,115.51133716738971L158.6593,115.47467032297702L163.32575000000003,116.06124037559331L167.9922,117.58261604475976L172.65865000000002,116.7761112309918L177.32510000000002,116.51947647276522L181.99155000000002,116.40950909218938L186.65800000000002,116.94107887818666L191.32445,116.59281016159059L195.9909,117.5459823530093L200.65735,116.55614331717791L205.3238,117.12437994758787L209.99025,116.81277807540448L214.65670000000003,116.61114358379693L219.32315000000003,117.80258395857365L223.98960000000002,117.76595026682318L228.65605000000002,118.70075588337333L233.32250000000002,117.2343473281637L237.98895000000002,117.83925080298634L242.65540000000001,119.06735802217574L247.32185,118.4074874333963L251.98830000000004,118.79242299440504" style="fill: none;" fill="none"></path></g><g><path stroke="rgb(204, 51, 17)" stroke-width="2px" d="M23.332250000000002,220.89264367333803L27.998700000000003,153.22428068368885L32.665150000000004,135.93718964959683L37.3316,123.84568438026311L41.99805,117.18591128866376L46.664500000000004,109.63658596444131L51.33095,104.53548528700324L55.997400000000006,99.3635373704061L60.663850000000004,96.83660830351712L65.33030000000001,93.2469374965802L69.99675,89.0432462327108L74.6632,88.1064846090898L79.32965,84.70575082413109L83.9961,84.84744530244919L88.66255000000001,82.28113087284567L93.32900000000001,80.30523220467569L97.99545,78.17978187724205L102.6619,76.90449841971697L107.32835000000001,76.715594550401L111.99480000000001,74.62949643301965L116.66125000000001,74.33821714277568L121.32770000000001,72.19701930078865L125.99415000000002,70.44155268370362L130.66060000000002,70.52025710380825L135.32705,69.56774796563388L139.9935,68.74904297216983L144.65995000000004,67.35566973182561L149.3264,67.26121779716762L153.99285000000003,66.89123408681901L158.6593,65.78914013671877L163.32575000000003,64.93894011414798L167.9922,64.57684673740717L172.65865000000002,64.03367351963372L177.32510000000002,62.70329033750298L181.99155000000002,62.44350607636573L186.65800000000002,62.152226786121744L191.32445,61.93182788769903L195.9909,61.60905356834831L200.65735,61.52245881463589L205.3238,59.97167673408242L209.99025,59.60955020467939L214.65670000000003,60.32591292987766L219.32315000000003,59.39700848720224L223.98960000000002,59.71189247294517L228.65605000000002,59.704035291999595L233.32250000000002,59.357656277149935L237.98895000000002,57.759631652936356L242.65540000000001,57.91707364580782L247.32185,57.87768828309329L251.98830000000004,57.98792088496687" style="fill: none;" fill="none"></path></g><g><path stroke="rgb(0, 119, 187)" stroke-width="2px" d="M23.332250000000002,156.11257376874985L27.998700000000003,137.0675628205687L32.665150000000004,129.1856168363169L37.3316,124.91469197347017L41.99805,121.98187486305089L46.664500000000004,119.7639286080301L51.33095,117.91258449181171L55.997400000000006,117.17938021420689L60.663850000000004,116.92274545598032L65.33030000000001,116.24454144499452L69.99675,116.29950855895133L74.6632,116.46450935880841L79.32965,116.44617593660207L83.9961,115.85960588398578L88.66255000000001,116.06124037559331L93.32900000000001,115.82293903957309L97.99545,116.13454091175647L102.6619,116.17120775616915L107.32835000000001,116.44617593660207L111.99480000000001,116.62947700600327L116.66125000000001,116.86774518936129L121.32770000000001,116.94107887818666L125.99415000000002,117.14271336979421L130.66060000000002,117.69261657799782L135.32705,117.34434786140176L139.9935,118.16918609737607L144.65995000000004,118.79242299440504L149.3264,119.41565989143403L153.99285000000003,119.78226203023644L158.6593,119.43396016097816L163.32575000000003,119.1773585554138L167.9922,120.14886416903884L172.65865000000002,120.0388636358008L177.32510000000002,120.00219679138812L181.99155000000002,121.41363823264093L186.65800000000002,121.12033663000167L191.32445,121.28530427719654L195.9909,121.34030454381556L200.65735,121.4869387688041L205.3238,121.94520801863821L209.99025,122.07350882142039L214.65670000000003,122.86171336564423L219.32315000000003,122.75171283240618L223.98960000000002,123.44828341826053L228.65605000000002,123.37494972943516L233.32250000000002,123.63158448766174L237.98895000000002,123.33828288502248L242.65540000000001,123.94318635984511L247.32185,124.163154273659L251.98830000000004,123.92485293763878" style="fill: none;" fill="none"></path></g><g><path stroke="rgb(255, 112, 67)" stroke-width="2px" d="M23.332250000000002,210.09216937608275L27.998700000000003,141.03043314608934L32.665150000000004,121.06686138584466L37.3316,109.38469203691186L41.99805,101.0481567483321L46.664500000000004,94.24668917841466L51.33095,88.0198898553774L55.997400000000006,81.91903749610485L60.663850000000004,78.6206128267497L65.33030000000001,74.81840030233563L69.99675,71.07917783613505L74.6632,67.37141724637898L79.32965,65.87573489043119L83.9961,62.63244309834393L88.66255000000001,60.695896640226266L93.32900000000001,58.57044631279262L97.99545,56.29541117343308L102.6619,55.01227053496243L107.32835000000001,53.16231883055718L111.99480000000001,51.39899503252657L116.66125000000001,50.32839611153307L121.32770000000001,48.03761345762014L125.99415000000002,46.67573524638265L130.66060000000002,45.33749488330632L135.32705,45.187910071380436L139.9935,42.70822354815155L144.65995000000004,42.188655025877054L149.3264,40.88187653924525L153.99285000000003,39.630230929881336L158.6593,39.54363617616892L163.32575000000003,38.61473173349351L167.9922,36.615228369824585L172.65865000000002,36.72542781903594L177.32510000000002,35.8122708909139L181.99155000000002,35.615476687990125L186.65800000000002,34.20638908575475L191.32445,34.05680427382886L195.9909,33.230242099419236L200.65735,32.21474290303141L205.3238,31.325190670408308L209.99025,31.057549228325485L214.65670000000003,30.68756551797688L219.32315000000003,29.79801328535378L223.98960000000002,29.91610306817293L228.65605000000002,29.45952460411191L233.32250000000002,29.32568730673939L237.98895000000002,28.34954032040387L242.65540000000001,28.050403849214316L247.32185,27.83786213173717L251.98830000000004,27.68042013886571" style="fill: none;" fill="none"></path></g></g></g></g></g></g><g transform="translate(50, 177)" clip-path="url(#clip_1)"><clipPath id="clip_1"><rect width="279" height="21"></rect></clipPath><g><g><line x1="0" y1="0" x2="0" y2="5" style="visibility: inherit;" fill="rgb(0, 0, 0)" stroke="rgb(204, 204, 204)" stroke-width="1px"></line><line x1="23.332250000000002" y1="0" x2="23.332250000000002" y2="5" style="visibility: inherit;" fill="rgb(0, 0, 0)" stroke="rgb(204, 204, 204)" stroke-width="1px"></line><line x1="46.664500000000004" y1="0" x2="46.664500000000004" y2="5" style="visibility: inherit;" fill="rgb(0, 0, 0)" stroke="rgb(204, 204, 204)" stroke-width="1px"></line><line x1="69.99675" y1="0" x2="69.99675" y2="5" style="visibility: inherit;" fill="rgb(0, 0, 0)" stroke="rgb(204, 204, 204)" stroke-width="1px"></line><line x1="93.32900000000001" y1="0" x2="93.32900000000001" y2="5" style="visibility: inherit;" fill="rgb(0, 0, 0)" stroke="rgb(204, 204, 204)" stroke-width="1px"></line><line x1="116.66125000000001" y1="0" x2="116.66125000000001" y2="5" style="visibility: inherit;" fill="rgb(0, 0, 0)" stroke="rgb(204, 204, 204)" stroke-width="1px"></line><line x1="139.9935" y1="0" x2="139.9935" y2="5" style="visibility: inherit;" fill="rgb(0, 0, 0)" stroke="rgb(204, 204, 204)" stroke-width="1px"></line><line x1="163.32575000000003" y1="0" x2="163.32575000000003" y2="5" style="visibility: inherit;" fill="rgb(0, 0, 0)" stroke="rgb(204, 204, 204)" stroke-width="1px"></line><line x1="186.65800000000002" y1="0" x2="186.65800000000002" y2="5" style="visibility: inherit;" fill="rgb(0, 0, 0)" stroke="rgb(204, 204, 204)" stroke-width="1px"></line><line x1="209.99025" y1="0" x2="209.99025" y2="5" style="visibility: inherit;" fill="rgb(0, 0, 0)" stroke="rgb(204, 204, 204)" stroke-width="1px"></line><line x1="233.32250000000002" y1="0" x2="233.32250000000002" y2="5" style="visibility: inherit;" fill="rgb(0, 0, 0)" stroke="rgb(204, 204, 204)" stroke-width="1px"></line><line x1="256.65475000000004" y1="0" x2="256.65475000000004" y2="5" style="visibility: inherit;" fill="rgb(0, 0, 0)" stroke="rgb(204, 204, 204)" stroke-width="1px"></line><line x1="279.987" y1="0" x2="279.987" y2="5" style="visibility: inherit;" fill="rgb(0, 0, 0)" stroke="rgb(204, 204, 204)" stroke-width="1px"></line></g><g transform="translate(0, 8)"><text x="0" y="0" dx="0em" dy="0.95em" style="text-anchor: middle; visibility: hidden; font-family: Roboto, sans-serif; font-size: 12px; font-weight: 200;" fill="rgb(50, 49, 63)" stroke="none" stroke-width="1px">-5</text><text x="23.332250000000002" y="0" dx="0em" dy="0.95em" style="text-anchor: middle; visibility: inherit; font-family: Roboto, sans-serif; font-size: 12px; font-weight: 200;" fill="rgb(50, 49, 63)" stroke="none" stroke-width="1px">0</text><text x="46.664500000000004" y="0" dx="0em" dy="0.95em" style="text-anchor: middle; visibility: inherit; font-family: Roboto, sans-serif; font-size: 12px; font-weight: 200;" fill="rgb(50, 49, 63)" stroke="none" stroke-width="1px">5</text><text x="69.99675" y="0" dx="0em" dy="0.95em" style="text-anchor: middle; visibility: inherit; font-family: Roboto, sans-serif; font-size: 12px; font-weight: 200;" fill="rgb(50, 49, 63)" stroke="none" stroke-width="1px">10</text><text x="93.32900000000001" y="0" dx="0em" dy="0.95em" style="text-anchor: middle; visibility: inherit; font-family: Roboto, sans-serif; font-size: 12px; font-weight: 200;" fill="rgb(50, 49, 63)" stroke="none" stroke-width="1px">15</text><text x="116.66125000000001" y="0" dx="0em" dy="0.95em" style="text-anchor: middle; visibility: inherit; font-family: Roboto, sans-serif; font-size: 12px; font-weight: 200;" fill="rgb(50, 49, 63)" stroke="none" stroke-width="1px">20</text><text x="139.9935" y="0" dx="0em" dy="0.95em" style="text-anchor: middle; visibility: inherit; font-family: Roboto, sans-serif; font-size: 12px; font-weight: 200;" fill="rgb(50, 49, 63)" stroke="none" stroke-width="1px">25</text><text x="163.32575000000003" y="0" dx="0em" dy="0.95em" style="text-anchor: middle; visibility: inherit; font-family: Roboto, sans-serif; font-size: 12px; font-weight: 200;" fill="rgb(50, 49, 63)" stroke="none" stroke-width="1px">30</text><text x="186.65800000000002" y="0" dx="0em" dy="0.95em" style="text-anchor: middle; visibility: inherit; font-family: Roboto, sans-serif; font-size: 12px; font-weight: 200;" fill="rgb(50, 49, 63)" stroke="none" stroke-width="1px">35</text><text x="209.99025" y="0" dx="0em" dy="0.95em" style="text-anchor: middle; visibility: inherit; font-family: Roboto, sans-serif; font-size: 12px; font-weight: 200;" fill="rgb(50, 49, 63)" stroke="none" stroke-width="1px">40</text><text x="233.32250000000002" y="0" dx="0em" dy="0.95em" style="text-anchor: middle; visibility: inherit; font-family: Roboto, sans-serif; font-size: 12px; font-weight: 200;" fill="rgb(50, 49, 63)" stroke="none" stroke-width="1px">45</text><text x="256.65475000000004" y="0" dx="0em" dy="0.95em" style="text-anchor: middle; visibility: inherit; font-family: Roboto, sans-serif; font-size: 12px; font-weight: 200;" fill="rgb(50, 49, 63)" stroke="none" stroke-width="1px">50</text><text x="279.987" y="0" dx="0em" dy="0.95em" style="text-anchor: middle; visibility: hidden; font-family: Roboto, sans-serif; font-size: 12px; font-weight: 200;" fill="rgb(50, 49, 63)" stroke="none" stroke-width="1px">55</text></g><line x1="0" y1="0" x2="279.987" y2="0" fill="rgb(0, 0, 0)" stroke="rgb(204, 204, 204)" stroke-width="1px"></line></g></g></g></g></svg>